<svg xmlns="http://www.w3.org/2000/svg" width="68" height="68" fill="none"><g filter="url(#a)"><path fill="#FAFF3F" d="M60.312 63.5H7.688c-1.803 0-3.188-1.328-3.188-2.877V7.377C4.5 5.828 5.885 4.5 7.688 4.5h52.624c1.803 0 3.188 1.328 3.188 2.877v53.246c0 1.549-1.385 2.877-3.188 2.877Z"/><path stroke="url(#b)" d="M60.312 63.5H7.688c-1.803 0-3.188-1.328-3.188-2.877V7.377C4.5 5.828 5.885 4.5 7.688 4.5h52.624c1.803 0 3.188 1.328 3.188 2.877v53.246c0 1.549-1.385 2.877-3.188 2.877Z"/><path stroke="#02545E" d="M60.312 63.5H7.688c-1.803 0-3.188-1.328-3.188-2.877V7.377C4.5 5.828 5.885 4.5 7.688 4.5h52.624c1.803 0 3.188 1.328 3.188 2.877v53.246c0 1.549-1.385 2.877-3.188 2.877Z"/></g><g filter="url(#c)"><path fill="#595959" d="M38.845 13.97h-27.69c-1.19 0-2.155.964-2.155 2.154v27.69c0 1.19.965 2.155 2.155 2.155h27.69c1.19 0 2.155-.965 2.155-2.155v-27.69c0-1.19-.965-2.155-2.155-2.155Z"/></g><path fill="url(#d)" d="M38.791 14.023H11.21c-1.19 0-2.155.965-2.155 2.155v27.583c0 1.19.965 2.154 2.155 2.154H38.79c1.19 0 2.155-.964 2.155-2.154V16.178c0-1.19-.965-2.155-2.155-2.155Z"/><path fill="url(#e)" d="M38.468 14.346H11.532c-1.19 0-2.155.965-2.155 2.155v26.936c0 1.19.965 2.155 2.155 2.155h26.936c1.19 0 2.155-.965 2.155-2.155V16.5c0-1.19-.965-2.155-2.155-2.155Z"/><g filter="url(#f)"><path fill="#216169" d="M20.388 34.987h3.467v-9.501a8.86 8.86 0 0 0-1.319.41c-.416.169-.797.374-1.142.615l-1.524-2.178a11.56 11.56 0 0 1 1.71-.888 11.477 11.477 0 0 1 1.767-.586c.599-.15 1.198-.258 1.797-.323a16.89 16.89 0 0 1 1.806-.097l-.01.02h.01v12.528h3.31v2.715h-9.872v-2.715Z"/></g><g filter="url(#g)"><mask id="h" width="5" height="4" x="54" y="31" maskUnits="userSpaceOnUse" style="mask-type:luminance"><path fill="#fff" d="m57.493 34.832-3.385-1.357c.31-.086.573-.303.749-.59.175-.285.262-.634.217-.983l3.385 1.357c.044.349-.043.7-.218.984a1.3 1.3 0 0 1-.748.589Z"/></mask><g mask="url(#h)"><path fill="#02555F" d="m57.492 34.832-3.384-1.357c.116-.032.224-.082.324-.146l3.384 1.357c-.1.064-.21.114-.324.146Z"/><path fill="#02545E" d="m57.816 34.685-3.384-1.357c.06-.039.118-.082.17-.132l3.385 1.357c-.054.05-.11.093-.17.133Z"/><path fill="#02535C" d="m57.986 34.553-3.384-1.357c.044-.04.085-.083.124-.13l3.385 1.358c-.04.047-.08.09-.125.13Z"/><path fill="#02515B" d="m58.11 34.424-3.384-1.357c.037-.044.07-.089.101-.136l3.384 1.358c-.03.047-.064.093-.1.135Z"/><path fill="#015059" d="m58.212 34.288-3.385-1.357.03-.045c.02-.033.039-.067.057-.101l3.385 1.357a1.43 1.43 0 0 1-.058.101c-.01.016-.019.031-.03.045Z"/><path fill="#014F58" d="m58.299 34.142-3.385-1.357c.029-.054.053-.11.074-.167l3.384 1.358a1.48 1.48 0 0 1-.073.166Z"/><path fill="#014D56" d="m58.372 33.974-3.385-1.357a1.47 1.47 0 0 0 .062-.206l3.384 1.357c-.015.07-.036.14-.061.206Z"/><path fill="#014C55" d="M58.434 33.767 55.05 32.41c.037-.164.046-.337.026-.508l3.384 1.357c.02.171.011.344-.026.508Z"/></g><path fill="#014B54" d="m58.459 33.26-3.385-1.358-2.51-20.09 3.386 1.357 2.509 20.09Z"/><mask id="i" width="5" height="4" x="51" y="10" maskUnits="userSpaceOnUse" style="mask-type:luminance"><path fill="#fff" d="m51.907 10.886 3.385 1.357c.077.031.15.072.216.121.232.174.398.454.442.803l-3.385-1.357c-.044-.349-.208-.63-.441-.803a.969.969 0 0 0-.217-.12Z"/></mask><g mask="url(#i)"><path fill="#014C55" d="m55.95 13.168-3.385-1.357c-.044-.348-.208-.63-.441-.802a.928.928 0 0 0-.217-.121l3.385 1.357c.077.03.15.072.216.12.232.173.398.453.442.803Z"/></g><mask id="j" width="5" height="3" x="51" y="10" maskUnits="userSpaceOnUse" style="mask-type:luminance"><path fill="#fff" d="m51.907 10.886 3.384 1.357a.98.98 0 0 0-.625-.03l-3.385-1.357a.98.98 0 0 1 .626.03Z"/></mask><g mask="url(#j)"><path fill="#61B6C9" d="m54.667 12.213-3.384-1.357c.137-.037.273-.046.4-.03l3.385 1.358a1.017 1.017 0 0 0-.4.03Z"/><path fill="#60B3C6" d="m55.067 12.184-3.385-1.357c.065.01.127.024.188.046l3.384 1.357a.947.947 0 0 0-.187-.046Z"/><path fill="#5EB0C3" d="m55.256 12.23-3.385-1.358c.012.004.025.008.037.014l3.385 1.357c-.014-.004-.026-.01-.037-.014Z"/></g><mask id="k" width="5" height="2" x="51" y="10" maskUnits="userSpaceOnUse" style="mask-type:luminance"><path fill="#fff" d="m52.007 10.626 3.384 1.357a1.184 1.184 0 0 0-.759-.036l-3.384-1.357c.268-.075.53-.056.759.036Z"/></mask><g mask="url(#k)"><path fill="#02555F" d="m54.633 11.947-3.384-1.358a1.21 1.21 0 0 1 .483-.035l3.385 1.357a1.21 1.21 0 0 0-.484.036Z"/><path fill="#02545E" d="m55.117 11.911-3.385-1.357c.08.01.156.03.23.055l3.384 1.357a1.083 1.083 0 0 0-.23-.055Z"/><path fill="#02535C" d="m55.346 11.966-3.384-1.357c.015.005.03.01.044.017l3.385 1.357c-.015-.007-.03-.012-.045-.017Z"/></g><path fill="#025863" d="m38.033 40.191-3.384-1.357 19.46-5.36 3.384 1.358-19.46 5.36Z"/><mask id="l" width="5" height="3" x="34" y="38" maskUnits="userSpaceOnUse" style="mask-type:luminance"><path fill="#fff" d="m37.408 40.163-3.384-1.358a.98.98 0 0 0 .625.03l3.385 1.358a.983.983 0 0 1-.626-.03Z"/></mask><g mask="url(#l)"><path fill="#02535C" d="m37.408 40.163-3.384-1.358c.011.005.023.01.037.014l3.384 1.358a.26.26 0 0 0-.037-.014Z"/><path fill="#02545E" d="m37.445 40.175-3.384-1.357c.06.021.123.036.187.045l3.385 1.357a.887.887 0 0 1-.188-.045Z"/><path fill="#02555F" d="m37.634 40.22-3.384-1.357c.127.017.263.009.4-.029l3.385 1.357a1.011 1.011 0 0 1-.4.03Z"/></g><mask id="m" width="5" height="4" x="33" y="37" maskUnits="userSpaceOnUse" style="mask-type:luminance"><path fill="#fff" d="M33.807 38.683a1.167 1.167 0 0 1-.442-.802l3.385 1.357c.044.349.208.63.441.803l-3.384-1.358c1.128.454 2.257.906 3.384 1.358.067.05.14.09.217.12l-3.384-1.357a.906.906 0 0 1-.217-.12Z"/></mask><g mask="url(#m)"><path fill="#56A2B3" d="m37.408 40.163-3.384-1.357a.977.977 0 0 1-.217-.121 1.167 1.167 0 0 1-.442-.803l3.385 1.357c.044.35.208.63.441.803.069.049.141.089.217.12Z"/></g><mask id="n" width="5" height="4" x="33" y="37" maskUnits="userSpaceOnUse" style="mask-type:luminance"><path fill="#fff" d="m37.309 40.423-3.385-1.357c-.415-.166-.728-.575-.795-1.12l3.384 1.358c.069.544.382.953.796 1.119Z"/></mask><g mask="url(#n)"><path fill="#014C55" d="m37.309 40.423-3.385-1.357c-.415-.166-.728-.575-.795-1.12l3.384 1.358c.069.544.382.953.796 1.119Z"/></g><path fill="#65BCD1" d="m35.208 17.573-3.384-1.358 19.458-5.357 3.385 1.355-19.459 5.36Z"/><path fill="#025863" d="M35.175 17.306 31.79 15.95l19.46-5.36 3.383 1.358-19.459 5.36Z"/><path fill="#56A0B2" d="m36.751 39.237-3.384-1.357-2.51-20.09 3.384 1.357 2.51 20.09Z"/><path fill="#014B54" d="m36.513 39.302-3.385-1.357-2.51-20.09 3.386 1.357 2.509 20.09Z"/><mask id="o" width="6" height="4" x="30" y="16" maskUnits="userSpaceOnUse" style="mask-type:luminance"><path fill="#fff" d="m34.24 19.147-3.384-1.357c-.044-.348.043-.7.218-.984.175-.286.438-.503.748-.589l3.385 1.357c-.31.086-.573.303-.749.59-.175.284-.26.633-.217.983Z"/></mask><g mask="url(#o)"><path fill="#56A2B3" d="m34.24 19.147-3.384-1.357a1.48 1.48 0 0 1 .026-.509l3.384 1.358a1.504 1.504 0 0 0-.025.508Z"/><path fill="#58A4B6" d="m34.267 18.638-3.385-1.357a1.56 1.56 0 0 1 .061-.206l3.385 1.357a1.543 1.543 0 0 0-.062.206Z"/><path fill="#59A7B9" d="m34.328 18.43-3.385-1.357c.021-.057.046-.112.073-.166l3.385 1.357a1.888 1.888 0 0 0-.073.166Z"/><path fill="#5BAABD" d="m34.402 18.264-3.384-1.357a1.497 1.497 0 0 1 .087-.148l3.384 1.357-.03.046c-.02.034-.04.068-.057.102Z"/><path fill="#5CADC0" d="m34.488 18.116-3.385-1.357c.032-.047.066-.093.102-.135l3.384 1.357c-.035.043-.07.088-.101.135Z"/><path fill="#5EB0C3" d="m34.59 17.98-3.384-1.356c.04-.047.08-.09.125-.13l3.384 1.357c-.044.04-.087.085-.124.13Z"/><path fill="#60B3C6" d="m34.714 17.852-3.385-1.358c.053-.048.111-.093.17-.132l3.385 1.357c-.06.04-.116.084-.17.133Z"/><path fill="#61B6C9" d="M34.884 17.719 31.5 16.362c.1-.065.208-.115.324-.147l3.384 1.358a1.175 1.175 0 0 0-.324.146Z"/></g><path fill="#71D4EB" d="M54.667 12.213a.955.955 0 0 1 .841.151c.232.174.397.454.442.803l2.51 20.09c.044.349-.042.7-.218.984a1.3 1.3 0 0 1-.748.59l-19.46 5.359a.955.955 0 0 1-.84-.151 1.167 1.167 0 0 1-.442-.803l-2.51-20.09c-.044-.35.042-.7.218-.984.175-.286.438-.504.748-.59l19.46-5.359Z"/><path fill="#02636F" d="M54.633 11.947c.753-.208 1.45.31 1.554 1.155l2.51 20.09c.106.847-.419 1.7-1.17 1.906l-19.46 5.36c-.753.208-1.449-.31-1.553-1.156l-2.51-20.09c-.106-.847.418-1.7 1.17-1.906l19.46-5.36Zm3.826 21.312-2.51-20.09c-.045-.35-.209-.631-.442-.803a.956.956 0 0 0-.841-.151l-19.46 5.36c-.31.085-.572.302-.748.588a1.53 1.53 0 0 0-.217.984l2.51 20.09c.044.35.208.63.441.803.233.174.53.237.841.151l19.46-5.36c.31-.085.573-.302.748-.588.175-.286.262-.636.218-.984Z"/><mask id="p" width="6" height="5" x="30" y="15" maskUnits="userSpaceOnUse" style="mask-type:luminance"><path fill="#fff" d="m34.004 19.212-3.385-1.357c-.106-.847.42-1.7 1.171-1.906l3.385 1.357c-.752.207-1.277 1.06-1.171 1.906Z"/></mask><g mask="url(#p)"><path fill="#014C55" d="m34.004 19.212-3.385-1.357a1.805 1.805 0 0 1 .03-.617l3.385 1.358a1.78 1.78 0 0 0-.03.616Z"/><path fill="#014D56" d="m34.034 18.596-3.384-1.357c.019-.086.045-.17.075-.252l3.384 1.357c-.03.082-.056.166-.075.252Z"/><path fill="#014F58" d="m34.11 18.345-3.385-1.358c.027-.07.056-.136.089-.201l3.384 1.357a1.595 1.595 0 0 0-.088.201Z"/><path fill="#015059" d="m34.198 18.143-3.384-1.357c.031-.062.066-.12.104-.178l3.385 1.358a1.767 1.767 0 0 0-.105.177Z"/><path fill="#02515B" d="m34.302 17.964-3.384-1.357c.038-.056.079-.112.123-.164l3.384 1.357a1.773 1.773 0 0 0-.123.164Z"/><path fill="#02535C" d="m34.425 17.8-3.384-1.357c.046-.056.097-.109.15-.157l3.385 1.357a2.24 2.24 0 0 0-.15.157Z"/><path fill="#02545E" d="m34.576 17.644-3.384-1.357c.065-.06.135-.114.209-.162l3.384 1.357a1.476 1.476 0 0 0-.209.162Z"/><path fill="#02555F" d="m34.785 17.482-3.384-1.357c.121-.077.252-.138.39-.176l3.385 1.357c-.14.038-.271.098-.39.176Z"/></g><g filter="url(#q)"><path fill="#216169" d="m40.267 20.062 10.591-3.07.494 2.717-8.002 2.32.533 2.93c.423-.238.867-.465 1.337-.678l.078-.036c.45-.2.955-.382 1.517-.544.972-.281 1.863-.419 2.669-.407.807.01 1.515.155 2.12.434.605.28 1.101.683 1.49 1.211.387.53.65 1.172.786 1.926.142.78.122 1.527-.06 2.242a5.152 5.152 0 0 1-1.024 1.99c-.499.614-1.15 1.162-1.95 1.645-.345.208-.716.399-1.113.576a14.655 14.655 0 0 1-5.107 1.19c-.548.028-1.078.018-1.59-.027-.514-.044-1-.122-1.46-.232l.867-2.696c.37.09.763.145 1.178.163a11.243 11.243 0 0 0 2.56-.182 12.83 12.83 0 0 0 1.243-.293c.509-.146.963-.31 1.362-.486.155-.069.302-.141.44-.213.495-.263.89-.545 1.185-.848.294-.302.498-.62.608-.954.11-.334.133-.675.07-1.023a1.81 1.81 0 0 0-.43-.903c-.222-.249-.518-.43-.89-.547-.371-.117-.82-.161-1.345-.135-.525.026-1.124.137-1.794.331-.3.087-.636.2-1.008.338-.321.12-.658.258-1.009.415l-.166.074c-.414.188-.839.405-1.278.65-.438.246-.877.518-1.32.816l-1.582-8.694Z"/></g></g><g fill="#216169" filter="url(#r)"><path d="M9.002 51.972h6.207v1.23h-4.801v1.812h4.077v1.156h-4.077v2.725H9v-6.923h.002ZM16.389 51.972h1.417v6.923h-1.417v-6.923ZM19.6 51.971h6.208v1.23h-4.8v1.812h4.077v1.157h-4.077v2.724H19.6v-6.923ZM29.259 53.2h-2.563v-1.23h6.532v1.23h-2.563v5.692h-1.408V53.2h.002ZM34.735 51.974h5.91v1.23h-4.502v1.383h3.988v1.156h-3.988v1.926h4.597v1.228h-6.005v-6.923ZM42.3 51.97h5.91v1.23h-4.502v1.382h3.987v1.157h-3.987v1.926h4.597v1.228H42.3V51.97ZM49.858 51.97h1.408l4.326 2.26v-2.26H57v6.924h-1.408v-3.177l-4.326-2.245v5.422h-1.408V51.97Z"/></g><defs><filter id="a" width="68" height="68" x="0" y="0" color-interpolation-filters="sRGB" filterUnits="userSpaceOnUse"><feFlood flood-opacity="0" result="BackgroundImageFix"/><feColorMatrix in="SourceAlpha" result="hardAlpha" values="0 0 0 0 0 0 0 0 0 0 0 0 0 0 0 0 0 0 127 0"/><feOffset/><feGaussianBlur stdDeviation="2"/><feComposite in2="hardAlpha" operator="out"/><feColorMatrix values="0 0 0 0 0 0 0 0 0 0 0 0 0 0 0 0 0 0 0.5 0"/><feBlend in2="BackgroundImageFix" result="effect1_dropShadow_436_9398"/><feBlend in="SourceGraphic" in2="effect1_dropShadow_436_9398" result="shape"/><feColorMatrix in="SourceAlpha" result="hardAlpha" values="0 0 0 0 0 0 0 0 0 0 0 0 0 0 0 0 0 0 127 0"/><feOffset dx="-4" dy="4"/><feGaussianBlur stdDeviation="2"/><feComposite in2="hardAlpha" k2="-1" k3="1" operator="arithmetic"/><feColorMatrix values="0 0 0 0 0 0 0 0 0 0 0 0 0 0 0 0 0 0 0.25 0"/><feBlend in2="shape" result="effect2_innerShadow_436_9398"/><feColorMatrix in="SourceAlpha" result="hardAlpha" values="0 0 0 0 0 0 0 0 0 0 0 0 0 0 0 0 0 0 127 0"/><feOffset dx="4" dy="-4"/><feGaussianBlur stdDeviation="2"/><feComposite in2="hardAlpha" k2="-1" k3="1" operator="arithmetic"/><feColorMatrix values="0 0 0 0 0 0 0 0 0 0 0 0 0 0 0 0 0 0 0.25 0"/><feBlend in2="effect2_innerShadow_436_9398" result="effect3_innerShadow_436_9398"/></filter><filter id="c" width="42" height="42" x="2" y="10.969" color-interpolation-filters="sRGB" filterUnits="userSpaceOnUse"><feFlood flood-opacity="0" result="BackgroundImageFix"/><feColorMatrix in="SourceAlpha" result="hardAlpha" values="0 0 0 0 0 0 0 0 0 0 0 0 0 0 0 0 0 0 127 0"/><feOffset dx="-2" dy="2"/><feGaussianBlur stdDeviation="2.5"/><feColorMatrix values="0 0 0 0 0 0 0 0 0 0 0 0 0 0 0 0 0 0 0.5 0"/><feBlend in2="BackgroundImageFix" result="effect1_dropShadow_436_9398"/><feBlend in="SourceGraphic" in2="effect1_dropShadow_436_9398" result="shape"/></filter><filter id="f" width="10.391" height="19.264" x="19.87" y="22.439" color-interpolation-filters="sRGB" filterUnits="userSpaceOnUse"><feFlood flood-opacity="0" result="BackgroundImageFix"/><feBlend in="SourceGraphic" in2="BackgroundImageFix" result="shape"/><feColorMatrix in="SourceAlpha" result="hardAlpha" values="0 0 0 0 0 0 0 0 0 0 0 0 0 0 0 0 0 0 127 0"/><feOffset dy="4"/><feGaussianBlur stdDeviation="2"/><feComposite in2="hardAlpha" k2="-1" k3="1" operator="arithmetic"/><feColorMatrix values="0 0 0 0 0 0 0 0 0 0 0 0 0 0 0 0 0 0 0.25 0"/><feBlend in2="shape" result="effect1_innerShadow_436_9398"/></filter><filter id="g" width="36.105" height="37.96" x="22.606" y="10.544" color-interpolation-filters="sRGB" filterUnits="userSpaceOnUse"><feFlood flood-opacity="0" result="BackgroundImageFix"/><feColorMatrix in="SourceAlpha" result="hardAlpha" values="0 0 0 0 0 0 0 0 0 0 0 0 0 0 0 0 0 0 127 0"/><feOffset dx="-4" dy="4"/><feGaussianBlur stdDeviation="2"/><feComposite in2="hardAlpha" operator="out"/><feColorMatrix values="0 0 0 0 0 0 0 0 0 0 0 0 0 0 0 0 0 0 0.4 0"/><feBlend in2="BackgroundImageFix" result="effect1_dropShadow_436_9398"/><feBlend in="SourceGraphic" in2="effect1_dropShadow_436_9398" result="shape"/></filter><filter id="q" width="13.706" height="21.532" x="40.267" y="16.992" color-interpolation-filters="sRGB" filterUnits="userSpaceOnUse"><feFlood flood-opacity="0" result="BackgroundImageFix"/><feBlend in="SourceGraphic" in2="BackgroundImageFix" result="shape"/><feColorMatrix in="SourceAlpha" result="hardAlpha" values="0 0 0 0 0 0 0 0 0 0 0 0 0 0 0 0 0 0 127 0"/><feOffset dy="4"/><feGaussianBlur stdDeviation="2"/><feComposite in2="hardAlpha" k2="-1" k3="1" operator="arithmetic"/><feColorMatrix values="0 0 0 0 0 0 0 0 0 0 0 0 0 0 0 0 0 0 0.25 0"/><feBlend in2="shape" result="effect1_innerShadow_436_9398"/></filter><filter id="r" width="48" height="10.928" x="9" y="51.969" color-interpolation-filters="sRGB" filterUnits="userSpaceOnUse"><feFlood flood-opacity="0" result="BackgroundImageFix"/><feBlend in="SourceGraphic" in2="BackgroundImageFix" result="shape"/><feColorMatrix in="SourceAlpha" result="hardAlpha" values="0 0 0 0 0 0 0 0 0 0 0 0 0 0 0 0 0 0 127 0"/><feOffset dy="4"/><feGaussianBlur stdDeviation="2"/><feComposite in2="hardAlpha" k2="-1" k3="1" operator="arithmetic"/><feColorMatrix values="0 0 0 0 0 0 0 0 0 0 0 0 0 0 0 0 0 0 0.25 0"/><feBlend in2="shape" result="effect1_innerShadow_436_9398"/></filter><linearGradient id="b" x1="34" x2="34" y1="4" y2="64" gradientUnits="userSpaceOnUse"><stop stop-opacity="0"/><stop offset=".92" stop-opacity=".36"/></linearGradient><linearGradient id="d" x1="16.345" x2="33.656" y1="48.534" y2="11.406" gradientUnits="userSpaceOnUse"><stop offset=".17" stop-color="#A4B3BD"/><stop offset=".73" stop-color="#EEF1F3"/><stop offset=".85" stop-color="#fff"/></linearGradient><linearGradient id="e" x1="16.526" x2="33.475" y1="48.144" y2="11.795" gradientUnits="userSpaceOnUse"><stop stop-color="#FDFDFD"/><stop offset=".3" stop-color="#F4F4F4"/><stop offset=".79" stop-color="#DCDCDC"/><stop offset="1" stop-color="#D0D0D0"/></linearGradient></defs></svg>