<svg width="68" height="68" viewBox="0 0 68 68" fill="none" xmlns="http://www.w3.org/2000/svg">
<g filter="url(#filter0_dii_436_9398)">
<path d="M60.3116 63.5H7.68842C5.8845 63.5 4.5 62.1719 4.5 60.6232V7.37684C4.5 5.82812 5.8845 4.5 7.68842 4.5H60.3116C62.1155 4.5 63.5 5.82812 63.5 7.37684V60.6232C63.5 62.1719 62.1155 63.5 60.3116 63.5Z" fill="#FAFF3F"/>
<path d="M60.3116 63.5H7.68842C5.8845 63.5 4.5 62.1719 4.5 60.6232V7.37684C4.5 5.82812 5.8845 4.5 7.68842 4.5H60.3116C62.1155 4.5 63.5 5.82812 63.5 7.37684V60.6232C63.5 62.1719 62.1155 63.5 60.3116 63.5Z" stroke="url(#paint0_linear_436_9398)"/>
<path d="M60.3116 63.5H7.68842C5.8845 63.5 4.5 62.1719 4.5 60.6232V7.37684C4.5 5.82812 5.8845 4.5 7.68842 4.5H60.3116C62.1155 4.5 63.5 5.82812 63.5 7.37684V60.6232C63.5 62.1719 62.1155 63.5 60.3116 63.5Z" stroke="#02545E"/>
</g>
<g filter="url(#filter1_d_436_9398)">
<path d="M38.8451 13.9692H11.1549C9.96477 13.9692 9 14.934 9 16.1241V43.8143C9 45.0044 9.96477 45.9692 11.1549 45.9692H38.8451C40.0352 45.9692 41 45.0044 41 43.8143V16.1241C41 14.934 40.0352 13.9692 38.8451 13.9692Z" fill="#595959"/>
</g>
<path d="M38.7912 14.0233H11.2087C10.0186 14.0233 9.05386 14.988 9.05386 16.1782V43.7606C9.05386 44.9507 10.0186 45.9155 11.2087 45.9155H38.7912C39.9813 45.9155 40.9461 44.9507 40.9461 43.7606V16.1782C40.9461 14.988 39.9813 14.0233 38.7912 14.0233Z" fill="url(#paint1_linear_436_9398)"/>
<path d="M38.468 14.346H11.532C10.3419 14.346 9.37711 15.3108 9.37711 16.5009V43.4369C9.37711 44.627 10.3419 45.5918 11.532 45.5918H38.468C39.6581 45.5918 40.6229 44.627 40.6229 43.4369V16.5009C40.6229 15.3108 39.6581 14.346 38.468 14.346Z" fill="url(#paint2_linear_436_9398)"/>
<g filter="url(#filter2_i_436_9398)">
<path d="M20.3878 34.9875H23.8546V25.4856C23.3989 25.5897 22.9595 25.7265 22.5363 25.8957C22.1196 26.065 21.7388 26.2701 21.3937 26.511L19.8703 24.3332C20.4302 23.9817 20.9998 23.6854 21.5793 23.4445C22.1652 23.1972 22.7544 23.0018 23.3468 22.8586C23.9458 22.7089 24.5447 22.6015 25.1437 22.5363C25.7492 22.4712 26.3514 22.4387 26.9503 22.4387L26.9406 22.4582H26.9503V34.9875H30.2609V37.7024H20.3878V34.9875Z" fill="#216169"/>
</g>
<g filter="url(#filter3_d_436_9398)">
<mask id="mask0_436_9398" style="mask-type:luminance" maskUnits="userSpaceOnUse" x="54" y="31" width="5" height="4">
<path d="M57.4926 34.8319L54.1081 33.4748C54.4187 33.3893 54.6814 33.1716 54.8566 32.8858C55.0318 32.6 55.1186 32.2505 55.0744 31.9017L58.4589 33.2588C58.5031 33.6076 58.4165 33.9585 58.2411 34.2429C58.0659 34.5287 57.8031 34.7464 57.4926 34.8319Z" fill="white"/>
</mask>
<g mask="url(#mask0_436_9398)">
<path d="M57.4925 34.832L54.108 33.4749C54.2238 33.4429 54.3317 33.3933 54.432 33.3287L57.8165 34.6858C57.7161 34.7504 57.6069 34.8002 57.4925 34.832Z" fill="#02555F"/>
<path d="M57.8165 34.6855L54.432 33.3283C54.4919 33.2891 54.5498 33.2457 54.6027 33.1958L57.9871 34.5529C57.9329 34.603 57.8763 34.6462 57.8165 34.6855Z" fill="#02545E"/>
<path d="M57.986 34.5534L54.6015 33.1962C54.6458 33.1561 54.6869 33.1134 54.726 33.0667L58.1105 34.4238C58.0713 34.4705 58.0302 34.5132 57.986 34.5534Z" fill="#02535C"/>
<path d="M58.1102 34.4238L54.7257 33.0667C54.7625 33.0231 54.7963 32.9785 54.827 32.9314L58.2114 34.2885C58.1808 34.3356 58.1471 34.3817 58.1102 34.4238Z" fill="#02515B"/>
<path d="M58.2115 34.2885L54.827 32.9314C54.8363 32.9158 54.8472 32.9015 54.8565 32.8859C54.8763 32.8532 54.8959 32.819 54.9142 32.785L58.2986 34.1421C58.2804 34.1761 58.2621 34.2101 58.2409 34.243C58.2316 34.2586 58.2223 34.2742 58.2115 34.2885Z" fill="#015059"/>
<path d="M58.2987 34.1419L54.9142 32.7848C54.9426 32.7307 54.9667 32.6758 54.9876 32.6184L58.3721 33.9756C58.351 34.0315 58.3271 34.0879 58.2987 34.1419Z" fill="#014F58"/>
<path d="M58.3718 33.9742L54.9874 32.6171C55.0127 32.5505 55.0334 32.4801 55.0486 32.4105L58.433 33.7676C58.4181 33.8387 58.3972 33.9076 58.3718 33.9742Z" fill="#014D56"/>
<path d="M58.4345 33.7675L55.0501 32.4104C55.087 32.2458 55.0961 32.0732 55.0758 31.9015L58.4602 33.2586C58.4806 33.4303 58.4714 33.6029 58.4345 33.7675Z" fill="#014C55"/>
</g>
<path d="M58.4589 33.2591L55.0744 31.9019L52.5641 11.8116L55.9499 13.1685L58.4589 33.2591Z" fill="#014B54"/>
<mask id="mask1_436_9398" style="mask-type:luminance" maskUnits="userSpaceOnUse" x="51" y="10" width="5" height="4">
<path d="M51.907 10.8863L55.2915 12.2434C55.3686 12.274 55.4415 12.3151 55.5084 12.3643C55.7404 12.538 55.9056 12.8181 55.9498 13.1668L52.5654 11.8097C52.5211 11.461 52.3572 11.1793 52.1239 11.0072C52.0571 10.958 51.9842 10.9169 51.907 10.8863Z" fill="white"/>
</mask>
<g mask="url(#mask1_436_9398)">
<path d="M55.9499 13.1684L52.5654 11.8113C52.5212 11.4625 52.3572 11.1808 52.124 11.0087C52.0569 10.9582 51.9842 10.9184 51.9071 10.8878L55.2915 12.245C55.3687 12.2755 55.4416 12.3167 55.5084 12.3658C55.7403 12.5381 55.9055 12.8182 55.9499 13.1684Z" fill="#014C55"/>
</g>
<mask id="mask2_436_9398" style="mask-type:luminance" maskUnits="userSpaceOnUse" x="51" y="10" width="5" height="3">
<path d="M51.9069 10.8863L55.2913 12.2435C55.1027 12.168 54.888 12.1534 54.6659 12.2133L51.2814 10.8562C51.5036 10.7963 51.7183 10.8109 51.9069 10.8863Z" fill="white"/>
</mask>
<g mask="url(#mask2_436_9398)">
<path d="M54.6674 12.2132L51.2829 10.8561C51.4205 10.8185 51.5561 10.81 51.6837 10.8269L55.0682 12.184C54.9392 12.1673 54.8036 12.1758 54.6674 12.2132Z" fill="#61B6C9"/>
<path d="M55.0667 12.1842L51.6823 10.8271C51.7469 10.8362 51.8094 10.8513 51.8699 10.8725L55.2543 12.2296C55.1952 12.2083 55.1313 12.1933 55.0667 12.1842Z" fill="#60B3C6"/>
<path d="M55.2556 12.2292L51.8712 10.8721C51.883 10.8763 51.8962 10.8804 51.9082 10.8861L55.2927 12.2432C55.2795 12.2391 55.2675 12.2335 55.2556 12.2292Z" fill="#5EB0C3"/>
</g>
<mask id="mask3_436_9398" style="mask-type:luminance" maskUnits="userSpaceOnUse" x="51" y="10" width="5" height="2">
<path d="M52.0065 10.626L55.3909 11.9831C55.1622 11.8911 54.9006 11.8738 54.6322 11.9468L51.2477 10.5897C51.516 10.5153 51.7777 10.534 52.0065 10.626Z" fill="white"/>
</mask>
<g mask="url(#mask3_436_9398)">
<path d="M54.6334 11.9465L51.2489 10.5894C51.4151 10.5438 51.5773 10.5333 51.7322 10.554L55.1166 11.9112C54.9618 11.8905 54.7996 11.9009 54.6334 11.9465Z" fill="#02555F"/>
<path d="M55.1168 11.9112L51.7323 10.5541C51.8111 10.5643 51.8882 10.5833 51.9619 10.6086L55.3464 11.9657C55.2725 11.939 55.1956 11.9214 55.1168 11.9112Z" fill="#02545E"/>
<path d="M55.3462 11.9656L51.9618 10.6085C51.9766 10.6139 51.9913 10.6192 52.0063 10.6259L55.3907 11.983C55.3758 11.9763 55.361 11.971 55.3462 11.9656Z" fill="#02535C"/>
</g>
<path d="M38.0335 40.1915L34.6491 38.8344L54.1081 33.4749L57.4926 34.832L38.0335 40.1915Z" fill="#025863"/>
<mask id="mask4_436_9398" style="mask-type:luminance" maskUnits="userSpaceOnUse" x="34" y="38" width="5" height="3">
<path d="M37.4082 40.1626L34.0237 38.8054C34.2123 38.8809 34.427 38.8955 34.6492 38.8356L38.0336 40.1927C37.8128 40.2524 37.5981 40.2379 37.4082 40.1626Z" fill="white"/>
</mask>
<g mask="url(#mask4_436_9398)">
<path d="M37.4082 40.1626L34.0237 38.8054C34.0355 38.8097 34.0475 38.8154 34.0607 38.8195L37.4452 40.1766C37.4332 40.1709 37.4214 40.1666 37.4082 40.1626Z" fill="#02535C"/>
<path d="M37.4451 40.1751L34.0606 38.818C34.1211 38.8391 34.1836 38.8542 34.2482 38.8633L37.6327 40.2204C37.5683 40.2128 37.5056 40.1962 37.4451 40.1751Z" fill="#02545E"/>
<path d="M37.6341 40.2203L34.2496 38.8632C34.3772 38.8801 34.5129 38.8716 34.6505 38.834L38.0349 40.1911C37.8959 40.2289 37.7617 40.2372 37.6341 40.2203Z" fill="#02555F"/>
</g>
<mask id="mask5_436_9398" style="mask-type:luminance" maskUnits="userSpaceOnUse" x="33" y="37" width="5" height="4">
<path d="M33.8068 38.6834C33.5748 38.5097 33.4096 38.2296 33.3654 37.8808L36.7498 39.2379C36.794 39.5867 36.958 39.8684 37.1913 40.0405C36.0641 39.5885 34.9369 39.1364 33.8068 38.6834C34.9355 39.1366 36.0641 39.5885 37.1913 40.0405C37.2583 40.091 37.331 40.1308 37.4082 40.1613L34.0237 38.8042C33.9467 38.7751 33.8752 38.7338 33.8068 38.6834Z" fill="white"/>
</mask>
<g mask="url(#mask5_436_9398)">
<path d="M37.4083 40.1628L34.0238 38.8057C33.9467 38.7751 33.8738 38.7339 33.8069 38.6848C33.5749 38.5111 33.4097 38.231 33.3655 37.8822L36.7499 39.2393C36.7941 39.5881 36.9581 39.8698 37.1914 40.0419C37.2596 40.0909 37.3323 40.1306 37.4083 40.1628Z" fill="#56A2B3"/>
</g>
<mask id="mask6_436_9398" style="mask-type:luminance" maskUnits="userSpaceOnUse" x="33" y="37" width="5" height="4">
<path d="M37.3089 40.4229L33.9244 39.0658C33.5087 38.8996 33.1961 38.4912 33.1285 37.9467L36.5129 39.3038C36.582 39.8482 36.8945 40.2565 37.3089 40.4229Z" fill="white"/>
</mask>
<g mask="url(#mask6_436_9398)">
<path d="M37.3089 40.4229L33.9244 39.0658C33.5087 38.8996 33.1961 38.4912 33.1285 37.9467L36.5129 39.3038C36.582 39.8482 36.8945 40.2565 37.3089 40.4229Z" fill="#014C55"/>
</g>
<path d="M35.2084 17.5726L31.8239 16.2155L51.2817 10.8576L54.6674 12.2131L35.2084 17.5726Z" fill="#65BCD1"/>
<path d="M35.1745 17.3062L31.79 15.9491L51.2491 10.5896L54.6335 11.9467L35.1745 17.3062Z" fill="#025863"/>
<path d="M36.7512 39.2375L33.3668 37.8804L30.8564 17.7901L34.2408 19.1472L36.7512 39.2375Z" fill="#56A0B2"/>
<path d="M36.5127 39.3022L33.1283 37.9451L30.6179 17.8547L34.0038 19.2117L36.5127 39.3022Z" fill="#014B54"/>
<mask id="mask7_436_9398" style="mask-type:luminance" maskUnits="userSpaceOnUse" x="30" y="16" width="6" height="4">
<path d="M34.2407 19.1473L30.8562 17.7902C30.812 17.4415 30.8986 17.0906 31.074 16.8062C31.2492 16.5203 31.512 16.3026 31.8225 16.2172L35.207 17.5743C34.8964 17.6598 34.6336 17.8774 34.4584 18.1633C34.2831 18.4477 34.1977 18.797 34.2407 19.1473Z" fill="white"/>
</mask>
<g mask="url(#mask7_436_9398)">
<path d="M34.2407 19.1473L30.8562 17.7902C30.8345 17.6187 30.845 17.4459 30.8819 17.2814L34.2664 18.6385C34.2294 18.8031 34.2201 18.9742 34.2407 19.1473Z" fill="#56A2B3"/>
<path d="M34.2665 18.6383L30.882 17.2812C30.8984 17.21 30.9179 17.1412 30.9433 17.0746L34.3277 18.4318C34.3023 18.4984 34.2828 18.5671 34.2665 18.6383Z" fill="#58A4B6"/>
<path d="M34.3276 18.4303L30.9431 17.0732C30.964 17.0158 30.9895 16.9607 31.0165 16.9069L34.4009 18.264C34.3739 18.3178 34.3499 18.3727 34.3276 18.4303Z" fill="#59A7B9"/>
<path d="M34.4023 18.2642L31.0178 16.907C31.0359 16.8716 31.0543 16.839 31.0753 16.8047C31.0846 16.7891 31.0939 16.7735 31.1048 16.7592L34.4892 18.1163C34.4799 18.1319 34.4691 18.1462 34.4598 18.1618C34.4387 18.1961 34.4191 18.2303 34.4023 18.2642Z" fill="#5BAABD"/>
<path d="M34.4878 18.1162L31.1033 16.7591C31.1354 16.7118 31.169 16.6658 31.2046 16.6238L34.589 17.9809C34.5537 18.0243 34.5198 18.0689 34.4878 18.1162Z" fill="#5CADC0"/>
<path d="M34.5906 17.9807L31.2061 16.6236C31.2453 16.5768 31.2864 16.5342 31.3306 16.494L34.7151 17.8511C34.6708 17.8913 34.6285 17.9355 34.5906 17.9807Z" fill="#5EB0C3"/>
<path d="M34.7137 17.8515L31.3292 16.4944C31.3823 16.4459 31.44 16.4011 31.4999 16.3618L34.8843 17.7189C34.8245 17.7582 34.7681 17.8028 34.7137 17.8515Z" fill="#60B3C6"/>
<path d="M34.8843 17.7187L31.4998 16.3616C31.6002 16.297 31.7081 16.2473 31.8238 16.2154L35.2083 17.5725C35.0925 17.6045 34.9847 17.6541 34.8843 17.7187Z" fill="#61B6C9"/>
</g>
<path d="M54.6672 12.2131C54.9778 12.1277 55.2762 12.1907 55.5082 12.3644C55.7402 12.538 55.9054 12.8182 55.9496 13.1669L58.46 33.2572C58.5042 33.606 58.4176 33.9569 58.2423 34.2413C58.0671 34.5271 57.8043 34.7448 57.4937 34.8303L38.0347 40.1898C37.7242 40.2752 37.4258 40.2122 37.1938 40.0385C36.9617 39.8648 36.7965 39.5847 36.7523 39.236L34.2419 19.1456C34.1977 18.7969 34.2843 18.446 34.4597 18.1616C34.6349 17.8757 34.8977 17.658 35.2082 17.5726L54.6672 12.2131Z" fill="#71D4EB"/>
<path d="M54.6333 11.9465C55.3865 11.7387 56.0823 12.2569 56.1866 13.1022L58.697 33.1925C58.8029 34.039 58.2781 34.8921 57.5262 35.0983L38.0672 40.4578C37.314 40.6656 36.6183 40.1474 36.5139 39.3021L34.0035 19.2117C33.8976 18.3652 34.4224 17.5122 35.1743 17.3059L54.6333 11.9465ZM58.4587 33.2587L55.9483 13.1684C55.9041 12.8196 55.7401 12.5379 55.5069 12.3658C55.2734 12.1923 54.9765 12.1291 54.6659 12.2146L35.2069 17.5741C34.8964 17.6595 34.6336 17.8772 34.4584 18.163C34.2832 18.4489 34.1964 18.7984 34.2406 19.1471L36.751 39.2375C36.7952 39.5862 36.9592 39.8679 37.1924 40.04C37.4245 40.2137 37.7228 40.2767 38.0334 40.1912L57.4924 34.8318C57.803 34.7463 58.0657 34.5286 58.2409 34.2428C58.4161 33.957 58.5029 33.6075 58.4587 33.2587Z" fill="#02636F"/>
<mask id="mask8_436_9398" style="mask-type:luminance" maskUnits="userSpaceOnUse" x="30" y="15" width="6" height="5">
<path d="M34.0037 19.2116L30.6192 17.8545C30.5133 17.008 31.0381 16.1549 31.79 15.9487L35.1745 17.3058C34.4227 17.5135 33.898 18.3665 34.0037 19.2116Z" fill="white"/>
</mask>
<g mask="url(#mask8_436_9398)">
<path d="M34.0037 19.2117L30.6193 17.8546C30.5928 17.6462 30.6058 17.4371 30.6497 17.2385L34.0342 18.5956C33.9891 18.7958 33.9773 19.0033 34.0037 19.2117Z" fill="#014C55"/>
<path d="M34.0342 18.5959L30.6498 17.2388C30.6685 17.1528 30.6945 17.0689 30.725 16.9872L34.1095 18.3443C34.0789 18.426 34.0529 18.51 34.0342 18.5959Z" fill="#014D56"/>
<path d="M34.1096 18.3445L30.7251 16.9873C30.7516 16.9177 30.7811 16.8506 30.8138 16.786L34.1982 18.1431C34.1642 18.2079 34.1346 18.275 34.1096 18.3445Z" fill="#014F58"/>
<path d="M34.1982 18.143L30.8137 16.7859C30.8454 16.7243 30.8802 16.6651 30.9181 16.6085L34.3026 17.9656C34.2646 18.0223 34.2298 18.0814 34.1982 18.143Z" fill="#015059"/>
<path d="M34.3022 17.9643L30.9178 16.6072C30.9557 16.5506 30.9966 16.495 31.0408 16.4433L34.4252 17.8004C34.381 17.8521 34.3402 17.9077 34.3022 17.9643Z" fill="#02515B"/>
<path d="M34.4253 17.8003L31.0409 16.4432C31.0873 16.3869 31.1384 16.3343 31.1915 16.2858L34.5759 17.6429C34.5231 17.6928 34.4733 17.7452 34.4253 17.8003Z" fill="#02535C"/>
<path d="M34.576 17.6441L31.1915 16.2869C31.2572 16.2268 31.3266 16.1733 31.4008 16.125L34.7852 17.4821C34.7108 17.529 34.6417 17.5839 34.576 17.6441Z" fill="#02545E"/>
<path d="M34.7853 17.4822L31.4009 16.1251C31.5221 16.0478 31.6525 15.9866 31.7915 15.9488L35.176 17.306C35.0356 17.3439 34.905 17.4037 34.7853 17.4822Z" fill="#02555F"/>
</g>
<g filter="url(#filter4_i_436_9398)">
<path d="M40.2671 20.0616L50.8584 16.9917L51.3524 19.7092L43.3497 22.0289L43.8833 24.9588C44.3056 24.7209 44.7505 24.4945 45.2196 24.2809C45.2463 24.2689 45.2715 24.2571 45.2982 24.245C45.7479 24.0454 46.2534 23.8632 46.815 23.7013C47.7872 23.4196 48.6775 23.2822 49.4838 23.2938C50.2914 23.3038 50.999 23.4488 51.6039 23.7279C52.2087 24.0071 52.7054 24.4108 53.0937 24.9392C53.4809 25.4692 53.7441 26.1114 53.8805 26.8648C54.0217 27.6449 54.0023 28.3921 53.8194 29.1067C53.6365 29.8213 53.2951 30.4854 52.7961 31.0975C52.2974 31.711 51.6466 32.2588 50.8452 32.7421C50.5008 32.95 50.1304 33.141 49.7328 33.3181C49.2031 33.5538 48.6248 33.7626 47.9994 33.9441C47.4352 34.1078 46.8679 34.2359 46.299 34.3297C45.7302 34.4234 45.1712 34.4842 44.626 34.5086C44.0784 34.5363 43.5484 34.5257 43.0354 34.4813C42.5223 34.4368 42.036 34.3588 41.5752 34.2486L42.4428 31.553C42.8123 31.643 43.2055 31.6983 43.6208 31.7162C44.0362 31.7356 44.4597 31.7294 44.8902 31.7008C45.3234 31.6704 45.752 31.616 46.1814 31.5342C46.6098 31.4554 47.0244 31.3568 47.4242 31.2412C47.9328 31.0947 48.3872 30.9319 48.7861 30.7546C48.941 30.686 49.0883 30.614 49.2257 30.5418C49.721 30.2788 50.1152 29.9969 50.4109 29.6944C50.7052 29.392 50.9087 29.0738 51.0186 28.7401C51.1286 28.4064 51.1515 28.0649 51.0891 27.7171C51.0244 27.3623 50.8804 27.0607 50.6588 26.8137C50.437 26.5652 50.1406 26.3839 49.7691 26.2667C49.3977 26.1496 48.9495 26.1056 48.4242 26.1319C47.8989 26.1581 47.2998 26.2687 46.6295 26.4631C46.3291 26.5502 45.9938 26.6633 45.6223 26.8011C45.3006 26.9211 44.9642 27.0588 44.6134 27.2157C44.5587 27.2399 44.5028 27.2657 44.4467 27.2901C44.0335 27.4779 43.6085 27.6946 43.1689 27.9404C42.7306 28.1861 42.2915 28.4579 41.8486 28.756L40.2671 20.0616Z" fill="#216169"/>
</g>
</g>
<g filter="url(#filter5_i_436_9398)">
<path d="M9.00152 51.9717H15.2095V53.2024H10.408V55.0137H14.4851V56.1703H10.408V58.8947H9V51.9717H9.00152Z" fill="#216169"/>
<path d="M16.3888 51.9716H17.8059V58.8946H16.3888V51.9716Z" fill="#216169"/>
<path d="M19.5998 51.9711H25.8078V53.2018H21.0078V55.0131H25.0848V56.1697H21.0078V58.8942H19.5998V51.9711Z" fill="#216169"/>
<path d="M29.2586 53.1999H26.6957V51.9692H33.228V53.1999H30.6651V58.8923H29.2571V53.1999H29.2586Z" fill="#216169"/>
<path d="M34.735 51.9739H40.6459V53.2046H36.143V54.5865H40.1306V55.7431H36.143V57.6693H40.7399V58.897H34.735V51.9739Z" fill="#216169"/>
<path d="M42.2997 51.9697H48.2106V53.2004H43.7077V54.5823H47.6953V55.7389H43.7077V57.6651H48.3046V58.8928H42.2997V51.9697Z" fill="#216169"/>
<path d="M49.8584 51.9709H51.2664L55.592 54.2297V51.9709H57V58.8939H55.592V55.7174L51.2664 53.4722V58.8939H49.8584V51.9709Z" fill="#216169"/>
</g>
<defs>
<filter id="filter0_dii_436_9398" x="0" y="0" width="68" height="68" filterUnits="userSpaceOnUse" color-interpolation-filters="sRGB">
<feFlood flood-opacity="0" result="BackgroundImageFix"/>
<feColorMatrix in="SourceAlpha" type="matrix" values="0 0 0 0 0 0 0 0 0 0 0 0 0 0 0 0 0 0 127 0" result="hardAlpha"/>
<feOffset/>
<feGaussianBlur stdDeviation="2"/>
<feComposite in2="hardAlpha" operator="out"/>
<feColorMatrix type="matrix" values="0 0 0 0 0 0 0 0 0 0 0 0 0 0 0 0 0 0 0.5 0"/>
<feBlend mode="normal" in2="BackgroundImageFix" result="effect1_dropShadow_436_9398"/>
<feBlend mode="normal" in="SourceGraphic" in2="effect1_dropShadow_436_9398" result="shape"/>
<feColorMatrix in="SourceAlpha" type="matrix" values="0 0 0 0 0 0 0 0 0 0 0 0 0 0 0 0 0 0 127 0" result="hardAlpha"/>
<feOffset dx="-4" dy="4"/>
<feGaussianBlur stdDeviation="2"/>
<feComposite in2="hardAlpha" operator="arithmetic" k2="-1" k3="1"/>
<feColorMatrix type="matrix" values="0 0 0 0 0 0 0 0 0 0 0 0 0 0 0 0 0 0 0.25 0"/>
<feBlend mode="normal" in2="shape" result="effect2_innerShadow_436_9398"/>
<feColorMatrix in="SourceAlpha" type="matrix" values="0 0 0 0 0 0 0 0 0 0 0 0 0 0 0 0 0 0 127 0" result="hardAlpha"/>
<feOffset dx="4" dy="-4"/>
<feGaussianBlur stdDeviation="2"/>
<feComposite in2="hardAlpha" operator="arithmetic" k2="-1" k3="1"/>
<feColorMatrix type="matrix" values="0 0 0 0 0 0 0 0 0 0 0 0 0 0 0 0 0 0 0.25 0"/>
<feBlend mode="normal" in2="effect2_innerShadow_436_9398" result="effect3_innerShadow_436_9398"/>
</filter>
<filter id="filter1_d_436_9398" x="2" y="10.9692" width="42" height="42" filterUnits="userSpaceOnUse" color-interpolation-filters="sRGB">
<feFlood flood-opacity="0" result="BackgroundImageFix"/>
<feColorMatrix in="SourceAlpha" type="matrix" values="0 0 0 0 0 0 0 0 0 0 0 0 0 0 0 0 0 0 127 0" result="hardAlpha"/>
<feOffset dx="-2" dy="2"/>
<feGaussianBlur stdDeviation="2.5"/>
<feColorMatrix type="matrix" values="0 0 0 0 0 0 0 0 0 0 0 0 0 0 0 0 0 0 0.5 0"/>
<feBlend mode="normal" in2="BackgroundImageFix" result="effect1_dropShadow_436_9398"/>
<feBlend mode="normal" in="SourceGraphic" in2="effect1_dropShadow_436_9398" result="shape"/>
</filter>
<filter id="filter2_i_436_9398" x="19.8703" y="22.4387" width="10.3906" height="19.2637" filterUnits="userSpaceOnUse" color-interpolation-filters="sRGB">
<feFlood flood-opacity="0" result="BackgroundImageFix"/>
<feBlend mode="normal" in="SourceGraphic" in2="BackgroundImageFix" result="shape"/>
<feColorMatrix in="SourceAlpha" type="matrix" values="0 0 0 0 0 0 0 0 0 0 0 0 0 0 0 0 0 0 127 0" result="hardAlpha"/>
<feOffset dy="4"/>
<feGaussianBlur stdDeviation="2"/>
<feComposite in2="hardAlpha" operator="arithmetic" k2="-1" k3="1"/>
<feColorMatrix type="matrix" values="0 0 0 0 0 0 0 0 0 0 0 0 0 0 0 0 0 0 0.25 0"/>
<feBlend mode="normal" in2="shape" result="effect1_innerShadow_436_9398"/>
</filter>
<filter id="filter3_d_436_9398" x="22.6057" y="10.5439" width="36.1049" height="37.9598" filterUnits="userSpaceOnUse" color-interpolation-filters="sRGB">
<feFlood flood-opacity="0" result="BackgroundImageFix"/>
<feColorMatrix in="SourceAlpha" type="matrix" values="0 0 0 0 0 0 0 0 0 0 0 0 0 0 0 0 0 0 127 0" result="hardAlpha"/>
<feOffset dx="-4" dy="4"/>
<feGaussianBlur stdDeviation="2"/>
<feComposite in2="hardAlpha" operator="out"/>
<feColorMatrix type="matrix" values="0 0 0 0 0 0 0 0 0 0 0 0 0 0 0 0 0 0 0.4 0"/>
<feBlend mode="normal" in2="BackgroundImageFix" result="effect1_dropShadow_436_9398"/>
<feBlend mode="normal" in="SourceGraphic" in2="effect1_dropShadow_436_9398" result="shape"/>
</filter>
<filter id="filter4_i_436_9398" x="40.2671" y="16.9917" width="13.7063" height="21.5321" filterUnits="userSpaceOnUse" color-interpolation-filters="sRGB">
<feFlood flood-opacity="0" result="BackgroundImageFix"/>
<feBlend mode="normal" in="SourceGraphic" in2="BackgroundImageFix" result="shape"/>
<feColorMatrix in="SourceAlpha" type="matrix" values="0 0 0 0 0 0 0 0 0 0 0 0 0 0 0 0 0 0 127 0" result="hardAlpha"/>
<feOffset dy="4"/>
<feGaussianBlur stdDeviation="2"/>
<feComposite in2="hardAlpha" operator="arithmetic" k2="-1" k3="1"/>
<feColorMatrix type="matrix" values="0 0 0 0 0 0 0 0 0 0 0 0 0 0 0 0 0 0 0.25 0"/>
<feBlend mode="normal" in2="shape" result="effect1_innerShadow_436_9398"/>
</filter>
<filter id="filter5_i_436_9398" x="9" y="51.9692" width="48" height="10.9277" filterUnits="userSpaceOnUse" color-interpolation-filters="sRGB">
<feFlood flood-opacity="0" result="BackgroundImageFix"/>
<feBlend mode="normal" in="SourceGraphic" in2="BackgroundImageFix" result="shape"/>
<feColorMatrix in="SourceAlpha" type="matrix" values="0 0 0 0 0 0 0 0 0 0 0 0 0 0 0 0 0 0 127 0" result="hardAlpha"/>
<feOffset dy="4"/>
<feGaussianBlur stdDeviation="2"/>
<feComposite in2="hardAlpha" operator="arithmetic" k2="-1" k3="1"/>
<feColorMatrix type="matrix" values="0 0 0 0 0 0 0 0 0 0 0 0 0 0 0 0 0 0 0.25 0"/>
<feBlend mode="normal" in2="shape" result="effect1_innerShadow_436_9398"/>
</filter>
<linearGradient id="paint0_linear_436_9398" x1="34" y1="4" x2="34" y2="64" gradientUnits="userSpaceOnUse">
<stop stop-opacity="0"/>
<stop offset="0.92" stop-opacity="0.36"/>
</linearGradient>
<linearGradient id="paint1_linear_436_9398" x1="16.3449" y1="48.5337" x2="33.6561" y2="11.4062" gradientUnits="userSpaceOnUse">
<stop offset="0.17" stop-color="#A4B3BD"/>
<stop offset="0.73" stop-color="#EEF1F3"/>
<stop offset="0.85" stop-color="white"/>
</linearGradient>
<linearGradient id="paint2_linear_436_9398" x1="16.5259" y1="48.1442" x2="33.4752" y2="11.7946" gradientUnits="userSpaceOnUse">
<stop stop-color="#FDFDFD"/>
<stop offset="0.3" stop-color="#F4F4F4"/>
<stop offset="0.79" stop-color="#DCDCDC"/>
<stop offset="1" stop-color="#D0D0D0"/>
</linearGradient>
</defs>
</svg>
