<svg width="177" height="143" viewBox="0 0 177 143" fill="none" xmlns="http://www.w3.org/2000/svg">
<g filter="url(#filter0_d_310_13572)">
<path d="M105.939 12.7632H28.0606C24.7134 12.7632 22 15.4766 22 18.8238V96.7026C22 100.05 24.7134 102.763 28.0606 102.763H105.939C109.287 102.763 112 100.05 112 96.7026V18.8238C112 15.4766 109.287 12.7632 105.939 12.7632Z" fill="#595959"/>
</g>
<path d="M105.788 12.9146H28.2121C24.8649 12.9146 22.1515 15.628 22.1515 18.9752V96.5509C22.1515 99.8981 24.8649 102.612 28.2121 102.612H105.788C109.135 102.612 111.848 99.8981 111.848 96.5509V18.9752C111.848 15.628 109.135 12.9146 105.788 12.9146Z" fill="url(#paint0_linear_310_13572)"/>
<path d="M104.879 13.8237H29.1213C25.7741 13.8237 23.0607 16.5372 23.0607 19.8843V95.6419C23.0607 98.9891 25.7741 101.703 29.1213 101.703H104.879C108.226 101.703 110.939 98.9891 110.939 95.6419V19.8843C110.939 16.5372 108.226 13.8237 104.879 13.8237Z" fill="url(#paint1_linear_310_13572)"/>
<g filter="url(#filter1_i_310_13572)">
<path d="M57.5518 69.1157H65.8721V46.311C64.7783 46.561 63.7236 46.8892 62.708 47.2954C61.708 47.7017 60.7939 48.1938 59.9658 48.772L56.3096 43.5454C57.6533 42.7017 59.0205 41.9907 60.4111 41.4126C61.8174 40.8188 63.2314 40.3501 64.6533 40.0063C66.0908 39.647 67.5283 39.3892 68.9658 39.2329C70.4189 39.0767 71.8643 38.9985 73.3018 38.9985L73.2783 39.0454H73.3018V69.1157H81.2471V75.6313H57.5518V69.1157Z" fill="#216169"/>
</g>
<g filter="url(#filter2_d_310_13572)">
<mask id="mask0_310_13572" style="mask-type:luminance" maskUnits="userSpaceOnUse" x="160" y="67" width="15" height="10">
<path d="M171.135 76.8972L160.456 72.7569C161.438 72.4906 162.271 71.8179 162.827 70.9365C163.384 70.0551 163.662 68.9787 163.526 67.9059L174.205 72.0462C174.341 73.1189 174.064 74.1997 173.507 75.0768C172.95 75.9582 172.118 76.6309 171.135 76.8972Z" fill="white"/>
</mask>
<g mask="url(#mask0_310_13572)">
<path d="M171.135 76.8973L160.456 72.7571C160.822 72.6575 161.163 72.5034 161.481 72.3036L172.161 76.4438C171.843 76.6436 171.497 76.7982 171.135 76.8973Z" fill="#02555F"/>
<path d="M172.161 76.4438L161.481 72.3035C161.671 72.182 161.854 72.048 162.022 71.8938L172.701 76.0341C172.529 76.1888 172.35 76.3223 172.161 76.4438Z" fill="#02545E"/>
<path d="M172.697 76.0345L162.017 71.8943C162.158 71.7702 162.288 71.6385 162.412 71.4942L173.092 75.6344C172.968 75.7787 172.837 75.9104 172.697 76.0345Z" fill="#02535C"/>
<path d="M173.092 75.6344L162.412 71.4942C162.529 71.3598 162.636 71.2221 162.734 71.0768L173.413 75.2171C173.316 75.3623 173.209 75.5044 173.092 75.6344Z" fill="#02515B"/>
<path d="M173.413 75.2171L162.734 71.0769C162.763 71.0288 162.798 70.9846 162.827 70.9365C162.89 70.8355 162.953 70.7301 163.011 70.6253L173.69 74.7655C173.632 74.8703 173.574 74.9752 173.507 75.0768C173.477 75.1248 173.448 75.1729 173.413 75.2171Z" fill="#015059"/>
<path d="M173.69 74.7654L163.011 70.6252C163.101 70.4587 163.177 70.2895 163.244 70.1127L173.924 74.2529C173.857 74.4253 173.78 74.5989 173.69 74.7654Z" fill="#014F58"/>
<path d="M173.923 74.2486L163.244 70.1084C163.324 69.9031 163.391 69.6865 163.439 69.4721L174.119 73.6123C174.071 73.8311 174.004 74.0434 173.923 74.2486Z" fill="#014D56"/>
<path d="M174.123 73.6117L163.443 69.4715C163.562 68.9647 163.593 68.4335 163.53 67.9053L174.21 72.0456C174.272 72.5738 174.242 73.1049 174.123 73.6117Z" fill="#014C55"/>
</g>
<path d="M174.205 72.0461L163.526 67.9059L155.807 6.10908L166.491 10.2487L174.205 72.0461Z" fill="#014B54"/>
<mask id="mask1_310_13572" style="mask-type:luminance" maskUnits="userSpaceOnUse" x="153" y="3" width="14" height="8">
<path d="M153.741 3.26953L164.42 7.40976C164.664 7.50295 164.894 7.62888 165.104 7.7794C165.836 8.31142 166.355 9.17166 166.491 10.2444L155.811 6.10417C155.675 5.03144 155.16 4.16628 154.425 3.63918C154.214 3.48866 153.984 3.36272 153.741 3.26953Z" fill="white"/>
</mask>
<g mask="url(#mask1_310_13572)">
<path d="M166.491 10.2488L155.811 6.10857C155.675 5.03583 155.16 4.17068 154.425 3.64358C154.214 3.4887 153.985 3.36712 153.741 3.27393L164.421 7.41415C164.664 7.50734 164.894 7.63328 165.105 7.7838C165.836 8.31146 166.355 9.1717 166.491 10.2488Z" fill="#014C55"/>
</g>
<mask id="mask2_310_13572" style="mask-type:luminance" maskUnits="userSpaceOnUse" x="151" y="3" width="14" height="5">
<path d="M153.741 3.26938L164.42 7.40961C163.825 7.17933 163.147 7.13682 162.444 7.32337L151.765 3.18315C152.467 2.99659 153.145 3.0391 153.741 3.26938Z" fill="white"/>
</mask>
<g mask="url(#mask2_310_13572)">
<path d="M162.449 7.32276L151.769 3.18254C152.204 3.06534 152.633 3.03757 153.036 3.08839L163.716 7.22861C163.308 7.17835 162.879 7.20612 162.449 7.32276Z" fill="#61B6C9"/>
<path d="M163.711 7.22934L153.031 3.08911C153.235 3.11642 153.433 3.16228 153.624 3.2267L164.303 7.36693C164.117 7.30195 163.915 7.25665 163.711 7.22934Z" fill="#60B3C6"/>
<path d="M164.308 7.3663L153.628 3.22607C153.665 3.23907 153.707 3.25151 153.745 3.26887L164.425 7.40909C164.383 7.39665 164.345 7.37929 164.308 7.3663Z" fill="#5EB0C3"/>
</g>
<mask id="mask3_310_13572" style="mask-type:luminance" maskUnits="userSpaceOnUse" x="151" y="2" width="14" height="5">
<path d="M154.058 2.46708L164.737 6.6073C164.016 6.32662 163.189 6.27629 162.34 6.50356L151.661 2.36334C152.509 2.13171 153.336 2.1864 154.058 2.46708Z" fill="white"/>
</mask>
<g mask="url(#mask3_310_13572)">
<path d="M162.345 6.50296L151.665 2.36274C152.191 2.22078 152.703 2.18681 153.192 2.24887L163.872 6.38909C163.383 6.32703 162.87 6.361 162.345 6.50296Z" fill="#02555F"/>
<path d="M163.872 6.38925L153.192 2.24902C153.441 2.2795 153.685 2.33724 153.917 2.4141L164.597 6.55432C164.364 6.4731 164.121 6.41972 163.872 6.38925Z" fill="#02545E"/>
<path d="M164.597 6.55404L153.917 2.41382C153.964 2.43006 154.01 2.44631 154.058 2.46691L164.737 6.60714C164.69 6.58653 164.644 6.57029 164.597 6.55404Z" fill="#02535C"/>
</g>
<path d="M109.592 93.5965L98.9128 89.4562L160.456 72.7569L171.135 76.8971L109.592 93.5965Z" fill="#025863"/>
<mask id="mask4_310_13572" style="mask-type:luminance" maskUnits="userSpaceOnUse" x="96" y="89" width="14" height="5">
<path d="M107.617 93.5145L96.9373 89.3743C97.5324 89.6045 98.2106 89.6471 98.9133 89.4605L109.593 93.6007C108.895 93.7867 108.216 93.7442 107.617 93.5145Z" fill="white"/>
</mask>
<g mask="url(#mask4_310_13572)">
<path d="M107.617 93.5145L96.9373 89.3743C96.9746 89.3873 97.0125 89.4046 97.0542 89.4171L107.734 93.5573C107.696 93.5399 107.659 93.5269 107.617 93.5145Z" fill="#02535C"/>
<path d="M107.733 93.5531L97.0536 89.4128C97.2445 89.4773 97.4419 89.5231 97.6459 89.5504L108.326 93.6907C108.122 93.6677 107.924 93.6175 107.733 93.5531Z" fill="#02545E"/>
<path d="M108.33 93.69L97.6502 89.5498C98.0532 89.6006 98.4819 89.5729 98.9171 89.4557L109.597 93.5959C109.157 93.7136 108.733 93.7408 108.33 93.69Z" fill="#02555F"/>
</g>
<mask id="mask5_310_13572" style="mask-type:luminance" maskUnits="userSpaceOnUse" x="94" y="86" width="14" height="8">
<path d="M96.2527 89.0004C95.5214 88.4684 95.0024 87.6081 94.8664 86.5354L105.546 90.6756C105.682 91.7484 106.197 92.6135 106.932 93.1406C103.376 91.7616 99.8189 90.3826 96.2527 89.0004C99.8145 90.3832 103.376 91.7616 106.932 93.1406C107.144 93.2955 107.373 93.4171 107.616 93.5103L96.9368 89.37C96.6938 89.2812 96.4684 89.1547 96.2527 89.0004Z" fill="white"/>
</mask>
<g mask="url(#mask5_310_13572)">
<path d="M107.617 93.5147L96.9373 89.3744C96.6938 89.2812 96.464 89.1553 96.2533 89.0048C95.5219 88.4728 95.0029 87.6125 94.8669 86.5398L105.547 90.68C105.683 91.7527 106.198 92.6179 106.933 93.145C107.148 93.295 107.377 93.4165 107.617 93.5147Z" fill="#56A2B3"/>
</g>
<mask id="mask6_310_13572" style="mask-type:luminance" maskUnits="userSpaceOnUse" x="94" y="86" width="14" height="9">
<path d="M107.3 94.3167L96.6202 90.1765C95.3083 89.6694 94.3251 88.416 94.1172 86.741L104.797 90.8812C105.009 92.5557 105.992 93.809 107.3 94.3167Z" fill="white"/>
</mask>
<g mask="url(#mask6_310_13572)">
<path d="M107.3 94.3167L96.6202 90.1765C95.3083 89.6694 94.3251 88.416 94.1172 86.741L104.797 90.8812C105.009 92.5557 105.992 93.809 107.3 94.3167Z" fill="#014C55"/>
</g>
<path d="M100.906 24.0223L90.2259 19.8821L151.765 3.18761L162.449 7.32292L100.906 24.0223Z" fill="#65BCD1"/>
<path d="M100.802 23.2022L90.1219 19.0619L151.665 2.3626L162.345 6.50282L100.802 23.2022Z" fill="#025863"/>
<path d="M105.55 90.6751L94.8708 86.5348L87.1521 24.738L97.8318 28.8782L105.55 90.6751Z" fill="#56A0B2"/>
<path d="M104.796 90.877L94.1166 86.7367L86.398 24.9399L97.082 29.0796L104.796 90.877Z" fill="#014B54"/>
<mask id="mask7_310_13572" style="mask-type:luminance" maskUnits="userSpaceOnUse" x="87" y="19" width="14" height="10">
<path d="M97.8318 28.8781L87.1521 24.7379C87.0161 23.6652 87.2935 22.5843 87.8507 21.7073C88.4073 20.8259 89.2399 20.1532 90.2221 19.8869L100.902 24.0271C99.9196 24.2934 99.087 24.9661 98.5303 25.8475C97.9732 26.7246 97.6996 27.8005 97.8318 28.8781Z" fill="white"/>
</mask>
<g mask="url(#mask7_310_13572)">
<path d="M97.8318 28.8781L87.1521 24.7379C87.0852 24.2102 87.1203 23.6785 87.2387 23.1717L97.9184 27.3119C97.8 27.8188 97.7687 28.3455 97.8318 28.8781Z" fill="#56A2B3"/>
<path d="M97.9184 27.3118L87.2387 23.1716C87.2911 22.9523 87.3534 22.7406 87.4343 22.5354L98.114 26.6756C98.0331 26.8808 97.9708 27.0925 97.9184 27.3118Z" fill="#58A4B6"/>
<path d="M98.1134 26.6712L87.4338 22.531C87.5005 22.3542 87.5814 22.1844 87.6673 22.0184L98.347 26.1586C98.2611 26.3246 98.1845 26.4938 98.1134 26.6712Z" fill="#59A7B9"/>
<path d="M98.3514 26.1583L87.6717 22.018C87.7292 21.9088 87.7877 21.8084 87.8545 21.7024C87.8841 21.6544 87.9136 21.6063 87.9481 21.5621L98.6278 25.7023C98.5982 25.7503 98.5637 25.7946 98.5342 25.8426C98.4674 25.9486 98.405 26.054 98.3514 26.1583Z" fill="#5BAABD"/>
<path d="M98.6234 25.7028L87.9437 21.5626C88.0455 21.4167 88.1523 21.2747 88.2651 21.1452L98.9448 25.2854C98.8325 25.4193 98.7252 25.5569 98.6234 25.7028Z" fill="#5CADC0"/>
<path d="M98.9492 25.2848L88.2695 21.1445C88.3938 21.0003 88.5241 20.8686 88.6643 20.7445L99.344 24.8847C99.2038 25.0088 99.0696 25.1454 98.9492 25.2848Z" fill="#5EB0C3"/>
<path d="M99.3396 24.8854L88.6599 20.7452C88.8281 20.5954 89.0111 20.457 89.2006 20.3355L99.8803 24.4757C99.6907 24.5972 99.5122 24.7351 99.3396 24.8854Z" fill="#60B3C6"/>
<path d="M99.8803 24.4756L89.2006 20.3354C89.5184 20.1356 89.8598 19.9816 90.2259 19.882L100.906 24.0222C100.539 24.1218 100.198 24.2759 99.8803 24.4756Z" fill="#61B6C9"/>
</g>
<path d="M162.449 7.32286C163.431 7.05656 164.373 7.24727 165.104 7.77929C165.836 8.31131 166.355 9.17155 166.491 10.2443L174.209 72.0411C174.345 73.1138 174.068 74.1947 173.511 75.0717C172.954 75.9531 172.121 76.6258 171.139 76.8921L109.596 93.5915C108.614 93.8578 107.672 93.6671 106.941 93.135C106.209 92.603 105.69 91.7428 105.554 90.6701L97.8356 28.8732C97.6996 27.8005 97.977 26.7197 98.5342 25.8426C99.0908 24.9612 99.9234 24.2885 100.906 24.0222L162.449 7.32286Z" fill="#71D4EB"/>
<path d="M162.345 6.50303C164.727 5.85544 166.92 7.44278 167.24 10.0429L174.959 71.8397C175.285 74.4436 173.618 77.0742 171.239 77.7169L109.696 94.4162C107.314 95.0638 105.121 93.4765 104.801 90.8764L97.082 29.0795C96.7564 26.4756 98.4235 23.845 100.802 23.2024L162.345 6.50303ZM174.205 72.046L166.487 10.2492C166.351 9.17645 165.836 8.31129 165.1 7.78419C164.365 7.25273 163.427 7.06145 162.445 7.32776L100.902 24.0271C99.9196 24.2934 99.087 24.9661 98.5303 25.8475C97.9737 26.7289 97.6958 27.8054 97.8318 28.8781L105.55 90.675C105.686 91.7477 106.202 92.6129 106.937 93.14C107.668 93.672 108.61 93.8627 109.592 93.5964L171.135 76.897C172.118 76.6307 172.95 75.958 173.507 75.0766C174.063 74.1952 174.341 73.1188 174.205 72.046Z" fill="#02636F"/>
<mask id="mask8_310_13572" style="mask-type:luminance" maskUnits="userSpaceOnUse" x="86" y="19" width="15" height="11">
<path d="M97.082 29.0794L86.4023 24.9392C86.0767 22.3353 87.7438 19.7047 90.122 19.0621L100.802 23.2023C98.4241 23.8493 96.7569 26.4799 97.082 29.0794Z" fill="white"/>
</mask>
<g mask="url(#mask8_310_13572)">
<path d="M97.082 29.0795L86.4023 24.9392C86.3211 24.2982 86.3643 23.6547 86.5051 23.0431L97.1847 27.1834C97.0401 27.7998 97.0008 28.4384 97.082 29.0795Z" fill="#014C55"/>
<path d="M97.1847 27.1834L86.505 23.0431C86.5651 22.7785 86.6481 22.5199 86.7455 22.2683L97.4251 26.4085C97.3278 26.6601 97.2448 26.9188 97.1847 27.1834Z" fill="#014D56"/>
<path d="M97.4251 26.4085L86.7455 22.2682C86.8297 22.0537 86.9237 21.8469 87.0277 21.6476L97.7074 25.7878C97.599 25.9876 97.505 26.1945 97.4251 26.4085Z" fill="#014F58"/>
<path d="M97.7074 25.7877L87.0277 21.6475C87.1284 21.4575 87.2389 21.2751 87.3593 21.1004L98.039 25.2406C97.9186 25.4154 97.808 25.5977 97.7074 25.7877Z" fill="#015059"/>
<path d="M98.0385 25.2363L87.3588 21.0961C87.4792 20.9213 87.609 20.7498 87.7492 20.5903L98.4288 24.7305C98.2887 24.89 98.1589 25.0616 98.0385 25.2363Z" fill="#02515B"/>
<path d="M98.4288 24.7305L87.7491 20.5903C87.8964 20.4165 88.0586 20.2542 88.2267 20.1044L98.9064 24.2446C98.7388 24.3988 98.5811 24.5605 98.4288 24.7305Z" fill="#02535C"/>
<path d="M98.9069 24.2489L88.2273 20.1086C88.4354 19.9227 88.6551 19.7575 88.8901 19.6081L99.5698 23.7483C99.3342 23.8934 99.1151 24.063 98.9069 24.2489Z" fill="#02545E"/>
<path d="M99.5698 23.7483L88.8901 19.6081C89.2742 19.3689 89.6868 19.1792 90.1264 19.0615L100.806 23.2017C100.362 23.32 99.9489 23.5053 99.5698 23.7483Z" fill="#02555F"/>
</g>
<g filter="url(#filter3_i_310_13572)">
<path d="M116.864 31.6273L150.363 22.0678L151.894 30.4251L126.583 37.6483L128.238 46.6589C129.575 45.9223 130.983 45.2209 132.468 44.5586C132.552 44.5214 132.632 44.4846 132.716 44.4474C134.14 43.8283 135.739 43.2622 137.515 42.7579C140.59 41.8807 143.404 41.4485 145.952 41.4756C148.504 41.4977 150.738 41.9366 152.646 42.7891C154.555 43.6416 156.12 44.8788 157.341 46.5006C158.559 48.1274 159.384 50.1009 159.807 52.4177C160.245 54.8169 160.175 57.1164 159.59 59.3174C159.004 61.5184 157.918 63.5657 156.335 65.4546C154.753 67.3477 152.691 69.0403 150.153 70.5362C149.063 71.1795 147.89 71.7713 146.632 72.3207C144.956 73.0516 143.127 73.7 141.149 74.2654C139.364 74.7752 137.57 75.1754 135.772 75.4699C133.973 75.7643 132.206 75.9573 130.483 76.0384C128.753 76.1293 127.078 76.1023 125.458 75.9711C123.837 75.8398 122.301 75.6047 120.846 75.2708L123.616 66.9663C124.783 67.2393 126.025 67.4054 127.337 67.4561C128.649 67.5113 129.988 67.4878 131.348 67.3951C132.717 67.2969 134.072 67.1251 135.43 66.8687C136.784 66.6217 138.095 66.3137 139.36 65.954C140.968 65.4975 142.406 64.9918 143.668 64.4419C144.158 64.2291 144.625 64.0061 145.06 63.7825C146.627 62.9679 147.876 62.0963 148.813 61.1621C149.747 60.2286 150.393 59.2472 150.744 58.219C151.095 57.1909 151.171 56.14 150.977 55.0702C150.777 53.979 150.325 53.0527 149.627 52.2948C148.929 51.5326 147.995 50.9777 146.822 50.6212C145.65 50.2647 144.234 50.1341 142.574 50.2204C140.914 50.3068 139.02 50.6533 136.9 51.2588C135.949 51.53 134.889 51.8815 133.713 52.3097C132.696 52.6824 131.631 53.1098 130.521 53.5961C130.348 53.6712 130.171 53.7513 129.993 53.827C128.686 54.4092 127.341 55.0804 125.949 55.8417C124.562 56.6025 123.171 57.4434 121.769 58.3656L116.864 31.6273Z" fill="#216169"/>
</g>
</g>
<g filter="url(#filter4_i_310_13572)">
<path d="M29.4358 122.77H47.5424V126.359H33.5381V131.642H45.4294V135.015H33.5381V142.962H29.4313V122.77H29.4358Z" fill="#216169"/>
<path d="M50.9821 122.77H55.1154V142.962H50.9821V122.77Z" fill="#216169"/>
<path d="M60.3476 122.769H78.4543V126.358H64.4543V131.641H76.3457V135.014H64.4543V142.961H60.3476V122.769Z" fill="#216169"/>
<path d="M88.5191 126.352H81.0439V122.763H100.097V126.352H92.6214V142.955H88.5147V126.352H88.5191Z" fill="#216169"/>
<path d="M104.492 122.777H121.732V126.366H108.598V130.397H120.229V133.77H108.598V139.388H122.006V142.969H104.492V122.777Z" fill="#216169"/>
<path d="M126.555 122.764H143.795V126.353H130.662V130.384H142.292V133.757H130.662V139.375H144.07V142.956H126.555V122.764Z" fill="#216169"/>
<path d="M148.602 122.768H152.708L165.325 129.356V122.768H169.431V142.96H165.325V133.695L152.708 127.147V142.96H148.602V122.768Z" fill="#216169"/>
</g>
<defs>
<filter id="filter0_d_310_13572" x="0" y="10.7632" width="114" height="114" filterUnits="userSpaceOnUse" color-interpolation-filters="sRGB">
<feFlood flood-opacity="0" result="BackgroundImageFix"/>
<feColorMatrix in="SourceAlpha" type="matrix" values="0 0 0 0 0 0 0 0 0 0 0 0 0 0 0 0 0 0 127 0" result="hardAlpha"/>
<feOffset dx="-10" dy="10"/>
<feGaussianBlur stdDeviation="6"/>
<feColorMatrix type="matrix" values="0 0 0 0 0 0 0 0 0 0 0 0 0 0 0 0 0 0 0.6 0"/>
<feBlend mode="normal" in2="BackgroundImageFix" result="effect1_dropShadow_310_13572"/>
<feBlend mode="normal" in="SourceGraphic" in2="effect1_dropShadow_310_13572" result="shape"/>
</filter>
<filter id="filter1_i_310_13572" x="56.3096" y="38.9985" width="24.9375" height="40.6328" filterUnits="userSpaceOnUse" color-interpolation-filters="sRGB">
<feFlood flood-opacity="0" result="BackgroundImageFix"/>
<feBlend mode="normal" in="SourceGraphic" in2="BackgroundImageFix" result="shape"/>
<feColorMatrix in="SourceAlpha" type="matrix" values="0 0 0 0 0 0 0 0 0 0 0 0 0 0 0 0 0 0 127 0" result="hardAlpha"/>
<feOffset dy="4"/>
<feGaussianBlur stdDeviation="2"/>
<feComposite in2="hardAlpha" operator="arithmetic" k2="-1" k3="1"/>
<feColorMatrix type="matrix" values="0 0 0 0 0 0 0 0 0 0 0 0 0 0 0 0 0 0 0.25 0"/>
<feBlend mode="normal" in2="shape" result="effect1_innerShadow_310_13572"/>
</filter>
<filter id="filter2_d_310_13572" x="64.3617" y="2.21924" width="110.638" height="112.342" filterUnits="userSpaceOnUse" color-interpolation-filters="sRGB">
<feFlood flood-opacity="0" result="BackgroundImageFix"/>
<feColorMatrix in="SourceAlpha" type="matrix" values="0 0 0 0 0 0 0 0 0 0 0 0 0 0 0 0 0 0 127 0" result="hardAlpha"/>
<feOffset dx="-12" dy="10"/>
<feGaussianBlur stdDeviation="5"/>
<feComposite in2="hardAlpha" operator="out"/>
<feColorMatrix type="matrix" values="0 0 0 0 0 0 0 0 0 0 0 0 0 0 0 0 0 0 0.4 0"/>
<feBlend mode="normal" in2="BackgroundImageFix" result="effect1_dropShadow_310_13572"/>
<feBlend mode="normal" in="SourceGraphic" in2="effect1_dropShadow_310_13572" result="shape"/>
</filter>
<filter id="filter3_i_310_13572" x="116.864" y="22.0679" width="43.2258" height="58.0239" filterUnits="userSpaceOnUse" color-interpolation-filters="sRGB">
<feFlood flood-opacity="0" result="BackgroundImageFix"/>
<feBlend mode="normal" in="SourceGraphic" in2="BackgroundImageFix" result="shape"/>
<feColorMatrix in="SourceAlpha" type="matrix" values="0 0 0 0 0 0 0 0 0 0 0 0 0 0 0 0 0 0 127 0" result="hardAlpha"/>
<feOffset dy="4"/>
<feGaussianBlur stdDeviation="2"/>
<feComposite in2="hardAlpha" operator="arithmetic" k2="-1" k3="1"/>
<feColorMatrix type="matrix" values="0 0 0 0 0 0 0 0 0 0 0 0 0 0 0 0 0 0 0.25 0"/>
<feBlend mode="normal" in2="shape" result="effect1_innerShadow_310_13572"/>
</filter>
<filter id="filter4_i_310_13572" x="29.4313" y="122.763" width="140" height="24.2061" filterUnits="userSpaceOnUse" color-interpolation-filters="sRGB">
<feFlood flood-opacity="0" result="BackgroundImageFix"/>
<feBlend mode="normal" in="SourceGraphic" in2="BackgroundImageFix" result="shape"/>
<feColorMatrix in="SourceAlpha" type="matrix" values="0 0 0 0 0 0 0 0 0 0 0 0 0 0 0 0 0 0 127 0" result="hardAlpha"/>
<feOffset dy="4"/>
<feGaussianBlur stdDeviation="2"/>
<feComposite in2="hardAlpha" operator="arithmetic" k2="-1" k3="1"/>
<feColorMatrix type="matrix" values="0 0 0 0 0 0 0 0 0 0 0 0 0 0 0 0 0 0 0.25 0"/>
<feBlend mode="normal" in2="shape" result="effect1_innerShadow_310_13572"/>
</filter>
<linearGradient id="paint0_linear_310_13572" x1="42.6576" y1="109.975" x2="91.3454" y2="5.55395" gradientUnits="userSpaceOnUse">
<stop offset="0.17" stop-color="#A4B3BD"/>
<stop offset="0.73" stop-color="#EEF1F3"/>
<stop offset="0.85" stop-color="white"/>
</linearGradient>
<linearGradient id="paint1_linear_310_13572" x1="43.1667" y1="108.881" x2="90.8364" y2="6.64797" gradientUnits="userSpaceOnUse">
<stop stop-color="#FDFDFD"/>
<stop offset="0.3" stop-color="#F4F4F4"/>
<stop offset="0.79" stop-color="#DCDCDC"/>
<stop offset="1" stop-color="#D0D0D0"/>
</linearGradient>
</defs>
</svg>
