<svg width="30" height="28" viewBox="0 0 30 28" fill="none" xmlns="http://www.w3.org/2000/svg">
<path d="M15.612 1.21347C15.4346 1.07513 15.216 1 14.991 1C14.766 1 14.5474 1.07513 14.37 1.21347L0 12.4185L1.243 13.9905L3 12.6205V24.9995C3.00106 25.5296 3.21211 26.0377 3.58695 26.4125C3.9618 26.7874 4.46989 26.9984 5 26.9995H25C25.5301 26.9984 26.0382 26.7874 26.413 26.4125C26.7879 26.0377 26.9989 25.5296 27 24.9995V12.6295L28.757 13.9995L30 12.4275L15.612 1.21347ZM17 24.9995H13V16.9995H17V24.9995ZM19 24.9995V16.9995C18.9995 16.4692 18.7886 15.9608 18.4136 15.5858C18.0387 15.2109 17.5303 15 17 14.9995H13C12.4697 15 11.9613 15.2109 11.5864 15.5858C11.2114 15.9608 11.0005 16.4692 11 16.9995V24.9995H5V11.0615L15 3.27147L25 11.0715V24.9995H19Z" fill="black"/>
</svg>
