<svg width="193" height="188" viewBox="0 0 193 188" fill="none" xmlns="http://www.w3.org/2000/svg">
<g filter="url(#filter0_dii_310_13761)">
<path d="M177.935 179.5H20.0653C14.1861 179.5 9.5 175.149 9.5 169.869V10.1305C9.5 4.85084 14.1861 0.5 20.0653 0.5H177.935C183.814 0.5 188.5 4.85084 188.5 10.1305V169.869C188.5 175.149 183.814 179.5 177.935 179.5Z" fill="#FAFF3F" stroke="#02545E"/>
</g>
<g filter="url(#filter1_d_310_13761)">
<path d="M105.939 30.7632H28.0606C24.7134 30.7632 22 33.4766 22 36.8238V114.703C22 118.05 24.7134 120.763 28.0606 120.763H105.939C109.287 120.763 112 118.05 112 114.703V36.8238C112 33.4766 109.287 30.7632 105.939 30.7632Z" fill="#595959"/>
</g>
<path d="M105.788 30.9146H28.2121C24.8649 30.9146 22.1515 33.628 22.1515 36.9752V114.551C22.1515 117.898 24.8649 120.612 28.2121 120.612H105.788C109.135 120.612 111.848 117.898 111.848 114.551V36.9752C111.848 33.628 109.135 30.9146 105.788 30.9146Z" fill="url(#paint0_linear_310_13761)"/>
<path d="M104.879 31.8237H29.1213C25.7741 31.8237 23.0607 34.5372 23.0607 37.8843V113.642C23.0607 116.989 25.7741 119.703 29.1213 119.703H104.879C108.226 119.703 110.939 116.989 110.939 113.642V37.8843C110.939 34.5372 108.226 31.8237 104.879 31.8237Z" fill="url(#paint1_linear_310_13761)"/>
<g filter="url(#filter2_i_310_13761)">
<path d="M57.5518 87.1157H65.8721V64.311C64.7783 64.561 63.7236 64.8892 62.708 65.2954C61.708 65.7017 60.7939 66.1938 59.9658 66.772L56.3096 61.5454C57.6533 60.7017 59.0205 59.9907 60.4111 59.4126C61.8174 58.8188 63.2314 58.3501 64.6533 58.0063C66.0908 57.647 67.5283 57.3892 68.9658 57.2329C70.4189 57.0767 71.8643 56.9985 73.3018 56.9985L73.2783 57.0454H73.3018V87.1157H81.2471V93.6313H57.5518V87.1157Z" fill="#216169"/>
</g>
<g filter="url(#filter3_d_310_13761)">
<mask id="mask0_310_13761" style="mask-type:luminance" maskUnits="userSpaceOnUse" x="160" y="85" width="15" height="10">
<path d="M171.135 94.8972L160.456 90.7569C161.438 90.4906 162.271 89.8179 162.827 88.9365C163.384 88.0551 163.662 86.9787 163.526 85.9059L174.205 90.0462C174.341 91.1189 174.064 92.1997 173.507 93.0768C172.95 93.9582 172.118 94.6309 171.135 94.8972Z" fill="white"/>
</mask>
<g mask="url(#mask0_310_13761)">
<path d="M171.135 94.8973L160.456 90.7571C160.822 90.6575 161.163 90.5034 161.481 90.3036L172.161 94.4438C171.843 94.6436 171.497 94.7982 171.135 94.8973Z" fill="#02555F"/>
<path d="M172.161 94.4438L161.481 90.3035C161.671 90.182 161.854 90.048 162.022 89.8938L172.701 94.0341C172.529 94.1888 172.35 94.3223 172.161 94.4438Z" fill="#02545E"/>
<path d="M172.697 94.0345L162.017 89.8943C162.158 89.7702 162.288 89.6385 162.412 89.4942L173.092 93.6344C172.968 93.7787 172.837 93.9104 172.697 94.0345Z" fill="#02535C"/>
<path d="M173.092 93.6344L162.412 89.4942C162.529 89.3598 162.636 89.2221 162.734 89.0768L173.413 93.2171C173.316 93.3623 173.209 93.5044 173.092 93.6344Z" fill="#02515B"/>
<path d="M173.413 93.2171L162.734 89.0769C162.763 89.0288 162.798 88.9846 162.827 88.9365C162.89 88.8355 162.953 88.7301 163.011 88.6253L173.69 92.7655C173.632 92.8703 173.574 92.9752 173.507 93.0768C173.477 93.1248 173.448 93.1729 173.413 93.2171Z" fill="#015059"/>
<path d="M173.69 92.7654L163.011 88.6252C163.101 88.4587 163.177 88.2895 163.244 88.1127L173.924 92.2529C173.857 92.4253 173.78 92.5989 173.69 92.7654Z" fill="#014F58"/>
<path d="M173.923 92.2486L163.244 88.1084C163.324 87.9031 163.391 87.6865 163.439 87.4721L174.119 91.6123C174.071 91.8311 174.004 92.0434 173.923 92.2486Z" fill="#014D56"/>
<path d="M174.123 91.6117L163.443 87.4715C163.562 86.9647 163.593 86.4335 163.53 85.9053L174.21 90.0456C174.272 90.5738 174.242 91.1049 174.123 91.6117Z" fill="#014C55"/>
</g>
<path d="M174.205 90.0461L163.526 85.9059L155.807 24.1091L166.491 28.2487L174.205 90.0461Z" fill="#014B54"/>
<mask id="mask1_310_13761" style="mask-type:luminance" maskUnits="userSpaceOnUse" x="153" y="21" width="14" height="8">
<path d="M153.741 21.2695L164.42 25.4098C164.664 25.5029 164.894 25.6289 165.104 25.7794C165.836 26.3114 166.355 27.1717 166.491 28.2444L155.811 24.1042C155.675 23.0314 155.16 22.1663 154.425 21.6392C154.214 21.4887 153.984 21.3627 153.741 21.2695Z" fill="white"/>
</mask>
<g mask="url(#mask1_310_13761)">
<path d="M166.491 28.2488L155.811 24.1086C155.675 23.0358 155.16 22.1707 154.425 21.6436C154.214 21.4887 153.985 21.3671 153.741 21.2739L164.421 25.4142C164.664 25.5073 164.894 25.6333 165.105 25.7838C165.836 26.3115 166.355 27.1717 166.491 28.2488Z" fill="#014C55"/>
</g>
<mask id="mask2_310_13761" style="mask-type:luminance" maskUnits="userSpaceOnUse" x="151" y="21" width="14" height="5">
<path d="M153.741 21.2694L164.42 25.4096C163.825 25.1793 163.147 25.1368 162.444 25.3234L151.765 21.1831C152.467 20.9966 153.145 21.0391 153.741 21.2694Z" fill="white"/>
</mask>
<g mask="url(#mask2_310_13761)">
<path d="M162.449 25.3228L151.769 21.1825C152.204 21.0653 152.633 21.0376 153.036 21.0884L163.716 25.2286C163.308 25.1784 162.879 25.2061 162.449 25.3228Z" fill="#61B6C9"/>
<path d="M163.711 25.2293L153.031 21.0891C153.235 21.1164 153.433 21.1623 153.624 21.2267L164.303 25.3669C164.117 25.302 163.915 25.2566 163.711 25.2293Z" fill="#60B3C6"/>
<path d="M164.308 25.3663L153.628 21.2261C153.665 21.2391 153.707 21.2515 153.745 21.2689L164.425 25.4091C164.383 25.3967 164.345 25.3793 164.308 25.3663Z" fill="#5EB0C3"/>
</g>
<mask id="mask3_310_13761" style="mask-type:luminance" maskUnits="userSpaceOnUse" x="151" y="20" width="14" height="5">
<path d="M154.058 20.4671L164.737 24.6073C164.016 24.3266 163.189 24.2763 162.34 24.5036L151.661 20.3633C152.509 20.1317 153.336 20.1864 154.058 20.4671Z" fill="white"/>
</mask>
<g mask="url(#mask3_310_13761)">
<path d="M162.345 24.503L151.665 20.3627C152.191 20.2208 152.703 20.1868 153.192 20.2489L163.872 24.3891C163.383 24.327 162.87 24.361 162.345 24.503Z" fill="#02555F"/>
<path d="M163.872 24.3892L153.192 20.249C153.441 20.2795 153.685 20.3372 153.917 20.4141L164.597 24.5543C164.364 24.4731 164.121 24.4197 163.872 24.3892Z" fill="#02545E"/>
<path d="M164.597 24.554L153.917 20.4138C153.964 20.4301 154.01 20.4463 154.058 20.4669L164.737 24.6071C164.69 24.5865 164.644 24.5703 164.597 24.554Z" fill="#02535C"/>
</g>
<path d="M109.592 111.596L98.9128 107.456L160.456 90.7569L171.135 94.8971L109.592 111.596Z" fill="#025863"/>
<mask id="mask4_310_13761" style="mask-type:luminance" maskUnits="userSpaceOnUse" x="96" y="107" width="14" height="5">
<path d="M107.617 111.514L96.9373 107.374C97.5324 107.605 98.2106 107.647 98.9133 107.461L109.593 111.601C108.895 111.787 108.216 111.744 107.617 111.514Z" fill="white"/>
</mask>
<g mask="url(#mask4_310_13761)">
<path d="M107.617 111.514L96.9373 107.374C96.9746 107.387 97.0125 107.405 97.0542 107.417L107.734 111.557C107.696 111.54 107.659 111.527 107.617 111.514Z" fill="#02535C"/>
<path d="M107.733 111.553L97.0536 107.413C97.2445 107.477 97.4419 107.523 97.6459 107.55L108.326 111.691C108.122 111.668 107.924 111.617 107.733 111.553Z" fill="#02545E"/>
<path d="M108.33 111.69L97.6502 107.55C98.0532 107.601 98.4819 107.573 98.9171 107.456L109.597 111.596C109.157 111.714 108.733 111.741 108.33 111.69Z" fill="#02555F"/>
</g>
<mask id="mask5_310_13761" style="mask-type:luminance" maskUnits="userSpaceOnUse" x="94" y="104" width="14" height="8">
<path d="M96.2527 107C95.5214 106.468 95.0024 105.608 94.8664 104.535L105.546 108.676C105.682 109.748 106.197 110.614 106.932 111.141C103.376 109.762 99.8189 108.383 96.2527 107C99.8145 108.383 103.376 109.762 106.932 111.141C107.144 111.296 107.373 111.417 107.616 111.51L96.9368 107.37C96.6938 107.281 96.4684 107.155 96.2527 107Z" fill="white"/>
</mask>
<g mask="url(#mask5_310_13761)">
<path d="M107.617 111.515L96.9373 107.374C96.6938 107.281 96.464 107.155 96.2533 107.005C95.5219 106.473 95.0029 105.613 94.8669 104.54L105.547 108.68C105.683 109.753 106.198 110.618 106.933 111.145C107.148 111.295 107.377 111.417 107.617 111.515Z" fill="#56A2B3"/>
</g>
<mask id="mask6_310_13761" style="mask-type:luminance" maskUnits="userSpaceOnUse" x="94" y="104" width="14" height="9">
<path d="M107.3 112.317L96.6202 108.177C95.3083 107.669 94.3251 106.416 94.1172 104.741L104.797 108.881C105.009 110.556 105.992 111.809 107.3 112.317Z" fill="white"/>
</mask>
<g mask="url(#mask6_310_13761)">
<path d="M107.3 112.317L96.6202 108.177C95.3083 107.669 94.3251 106.416 94.1172 104.741L104.797 108.881C105.009 110.556 105.992 111.809 107.3 112.317Z" fill="#014C55"/>
</g>
<path d="M100.906 42.0223L90.2259 37.8821L151.765 21.1876L162.449 25.3229L100.906 42.0223Z" fill="#65BCD1"/>
<path d="M100.802 41.2022L90.1219 37.0619L151.665 20.3626L162.345 24.5028L100.802 41.2022Z" fill="#025863"/>
<path d="M105.55 108.675L94.8708 104.535L87.1521 42.738L97.8318 46.8782L105.55 108.675Z" fill="#56A0B2"/>
<path d="M104.796 108.877L94.1166 104.737L86.398 42.9399L97.082 47.0796L104.796 108.877Z" fill="#014B54"/>
<mask id="mask7_310_13761" style="mask-type:luminance" maskUnits="userSpaceOnUse" x="87" y="37" width="14" height="10">
<path d="M97.8318 46.8781L87.1521 42.7379C87.0161 41.6652 87.2935 40.5843 87.8507 39.7073C88.4073 38.8259 89.2399 38.1532 90.2221 37.8869L100.902 42.0271C99.9196 42.2934 99.087 42.9661 98.5303 43.8475C97.9732 44.7246 97.6996 45.8005 97.8318 46.8781Z" fill="white"/>
</mask>
<g mask="url(#mask7_310_13761)">
<path d="M97.8318 46.8781L87.1521 42.7379C87.0852 42.2102 87.1203 41.6785 87.2387 41.1717L97.9184 45.3119C97.8 45.8188 97.7687 46.3455 97.8318 46.8781Z" fill="#56A2B3"/>
<path d="M97.9184 45.3118L87.2387 41.1716C87.2911 40.9523 87.3534 40.7406 87.4343 40.5354L98.114 44.6756C98.0331 44.8808 97.9708 45.0925 97.9184 45.3118Z" fill="#58A4B6"/>
<path d="M98.1134 44.6712L87.4338 40.531C87.5005 40.3542 87.5814 40.1844 87.6673 40.0184L98.347 44.1586C98.2611 44.3246 98.1845 44.4938 98.1134 44.6712Z" fill="#59A7B9"/>
<path d="M98.3514 44.1583L87.6717 40.018C87.7292 39.9088 87.7877 39.8084 87.8545 39.7024C87.8841 39.6544 87.9136 39.6063 87.9481 39.5621L98.6278 43.7023C98.5982 43.7503 98.5637 43.7946 98.5342 43.8426C98.4674 43.9486 98.405 44.054 98.3514 44.1583Z" fill="#5BAABD"/>
<path d="M98.6234 43.7028L87.9437 39.5626C88.0455 39.4167 88.1523 39.2747 88.2651 39.1452L98.9448 43.2854C98.8325 43.4193 98.7252 43.5569 98.6234 43.7028Z" fill="#5CADC0"/>
<path d="M98.9492 43.2848L88.2695 39.1445C88.3938 39.0003 88.5241 38.8686 88.6643 38.7445L99.344 42.8847C99.2038 43.0088 99.0696 43.1454 98.9492 43.2848Z" fill="#5EB0C3"/>
<path d="M99.3396 42.8854L88.6599 38.7452C88.8281 38.5954 89.0111 38.457 89.2006 38.3355L99.8803 42.4757C99.6907 42.5972 99.5122 42.7351 99.3396 42.8854Z" fill="#60B3C6"/>
<path d="M99.8803 42.4756L89.2006 38.3354C89.5184 38.1356 89.8598 37.9816 90.2259 37.882L100.906 42.0222C100.539 42.1218 100.198 42.2759 99.8803 42.4756Z" fill="#61B6C9"/>
</g>
<path d="M162.449 25.3229C163.431 25.0566 164.373 25.2473 165.104 25.7793C165.836 26.3113 166.355 27.1716 166.491 28.2443L174.209 90.0411C174.345 91.1138 174.068 92.1947 173.511 93.0717C172.954 93.9531 172.121 94.6258 171.139 94.8921L109.596 111.591C108.614 111.858 107.672 111.667 106.941 111.135C106.209 110.603 105.69 109.743 105.554 108.67L97.8356 46.8732C97.6996 45.8005 97.977 44.7197 98.5342 43.8426C99.0908 42.9612 99.9234 42.2885 100.906 42.0222L162.449 25.3229Z" fill="#71D4EB"/>
<path d="M162.345 24.503C164.727 23.8554 166.92 25.4428 167.24 28.0429L174.959 89.8397C175.285 92.4436 173.618 95.0742 171.239 95.7169L109.696 112.416C107.314 113.064 105.121 111.476 104.801 108.876L97.082 47.0795C96.7564 44.4756 98.4235 41.845 100.802 41.2024L162.345 24.503ZM174.205 90.046L166.487 28.2492C166.351 27.1765 165.836 26.3113 165.1 25.7842C164.365 25.2527 163.427 25.0615 162.445 25.3278L100.902 42.0271C99.9196 42.2934 99.087 42.9661 98.5303 43.8475C97.9737 44.7289 97.6958 45.8054 97.8318 46.8781L105.55 108.675C105.686 109.748 106.202 110.613 106.937 111.14C107.668 111.672 108.61 111.863 109.592 111.596L171.135 94.897C172.118 94.6307 172.95 93.958 173.507 93.0766C174.063 92.1952 174.341 91.1188 174.205 90.046Z" fill="#02636F"/>
<mask id="mask8_310_13761" style="mask-type:luminance" maskUnits="userSpaceOnUse" x="86" y="37" width="15" height="11">
<path d="M97.082 47.0794L86.4023 42.9392C86.0767 40.3353 87.7438 37.7047 90.122 37.0621L100.802 41.2023C98.4241 41.8493 96.7569 44.4799 97.082 47.0794Z" fill="white"/>
</mask>
<g mask="url(#mask8_310_13761)">
<path d="M97.082 47.0795L86.4023 42.9392C86.3211 42.2982 86.3643 41.6547 86.5051 41.0431L97.1847 45.1834C97.0401 45.7998 97.0008 46.4384 97.082 47.0795Z" fill="#014C55"/>
<path d="M97.1847 45.1834L86.505 41.0431C86.5651 40.7785 86.6481 40.5199 86.7455 40.2683L97.4251 44.4085C97.3278 44.6601 97.2448 44.9188 97.1847 45.1834Z" fill="#014D56"/>
<path d="M97.4251 44.4085L86.7455 40.2682C86.8297 40.0537 86.9237 39.8469 87.0277 39.6476L97.7074 43.7878C97.599 43.9876 97.505 44.1945 97.4251 44.4085Z" fill="#014F58"/>
<path d="M97.7074 43.7877L87.0277 39.6475C87.1284 39.4575 87.2389 39.2751 87.3593 39.1004L98.039 43.2406C97.9186 43.4154 97.808 43.5977 97.7074 43.7877Z" fill="#015059"/>
<path d="M98.0385 43.2363L87.3588 39.0961C87.4792 38.9213 87.609 38.7498 87.7492 38.5903L98.4288 42.7305C98.2887 42.89 98.1589 43.0616 98.0385 43.2363Z" fill="#02515B"/>
<path d="M98.4288 42.7305L87.7491 38.5903C87.8964 38.4165 88.0586 38.2542 88.2267 38.1044L98.9064 42.2446C98.7388 42.3988 98.5811 42.5605 98.4288 42.7305Z" fill="#02535C"/>
<path d="M98.9069 42.2489L88.2273 38.1086C88.4354 37.9227 88.6551 37.7575 88.8901 37.6081L99.5698 41.7483C99.3342 41.8934 99.1151 42.063 98.9069 42.2489Z" fill="#02545E"/>
<path d="M99.5698 41.7483L88.8901 37.6081C89.2742 37.3689 89.6868 37.1792 90.1264 37.0615L100.806 41.2017C100.362 41.32 99.9489 41.5053 99.5698 41.7483Z" fill="#02555F"/>
</g>
<g filter="url(#filter4_i_310_13761)">
<path d="M116.864 49.6273L150.363 40.0678L151.894 48.4251L126.583 55.6483L128.238 64.6589C129.575 63.9223 130.983 63.2209 132.468 62.5586C132.552 62.5214 132.632 62.4846 132.716 62.4474C134.14 61.8283 135.739 61.2622 137.515 60.7579C140.59 59.8807 143.404 59.4485 145.952 59.4756C148.504 59.4977 150.738 59.9366 152.646 60.7891C154.555 61.6416 156.12 62.8788 157.341 64.5006C158.559 66.1274 159.384 68.1009 159.807 70.4177C160.245 72.8169 160.175 75.1164 159.59 77.3174C159.004 79.5184 157.918 81.5657 156.335 83.4546C154.753 85.3477 152.691 87.0403 150.153 88.5362C149.063 89.1795 147.89 89.7713 146.632 90.3207C144.956 91.0516 143.127 91.7 141.149 92.2654C139.364 92.7752 137.57 93.1754 135.772 93.4699C133.973 93.7643 132.206 93.9573 130.483 94.0384C128.753 94.1293 127.078 94.1023 125.458 93.9711C123.837 93.8398 122.301 93.6047 120.846 93.2708L123.616 84.9663C124.783 85.2393 126.025 85.4054 127.337 85.4561C128.649 85.5113 129.988 85.4878 131.348 85.3951C132.717 85.2969 134.072 85.1251 135.43 84.8687C136.784 84.6217 138.095 84.3137 139.36 83.954C140.968 83.4975 142.406 82.9918 143.668 82.4419C144.158 82.2291 144.625 82.0061 145.06 81.7825C146.627 80.9679 147.876 80.0963 148.813 79.1621C149.747 78.2286 150.393 77.2472 150.744 76.219C151.095 75.1909 151.171 74.14 150.977 73.0702C150.777 71.979 150.325 71.0527 149.627 70.2948C148.929 69.5326 147.995 68.9777 146.822 68.6212C145.65 68.2647 144.234 68.1341 142.574 68.2204C140.914 68.3068 139.02 68.6533 136.9 69.2588C135.949 69.53 134.889 69.8815 133.713 70.3097C132.696 70.6824 131.631 71.1098 130.521 71.5961C130.348 71.6712 130.171 71.7513 129.993 71.827C128.686 72.4092 127.341 73.0804 125.949 73.8417C124.562 74.6025 123.171 75.4434 121.769 76.3656L116.864 49.6273Z" fill="#216169"/>
</g>
</g>
<g filter="url(#filter5_i_310_13761)">
<path d="M29.4358 140.77H47.5424V144.359H33.5381V149.642H45.4294V153.015H33.5381V160.962H29.4313V140.77H29.4358Z" fill="#216169"/>
<path d="M50.9821 140.77H55.1154V160.962H50.9821V140.77Z" fill="#216169"/>
<path d="M60.3476 140.769H78.4543V144.358H64.4543V149.641H76.3457V153.014H64.4543V160.961H60.3476V140.769Z" fill="#216169"/>
<path d="M88.5191 144.352H81.0439V140.763H100.097V144.352H92.6214V160.955H88.5147V144.352H88.5191Z" fill="#216169"/>
<path d="M104.492 140.777H121.732V144.366H108.598V148.397H120.229V151.77H108.598V157.388H122.006V160.969H104.492V140.777Z" fill="#216169"/>
<path d="M126.555 140.764H143.795V144.353H130.662V148.384H142.292V151.757H130.662V157.375H144.07V160.956H126.555V140.764Z" fill="#216169"/>
<path d="M148.602 140.768H152.708L165.325 147.356V140.768H169.431V160.96H165.325V151.695L152.708 145.147V160.96H148.602V140.768Z" fill="#216169"/>
</g>
<defs>
<filter id="filter0_dii_310_13761" x="5" y="-3" width="188" height="191" filterUnits="userSpaceOnUse" color-interpolation-filters="sRGB">
<feFlood flood-opacity="0" result="BackgroundImageFix"/>
<feColorMatrix in="SourceAlpha" type="matrix" values="0 0 0 0 0 0 0 0 0 0 0 0 0 0 0 0 0 0 127 0" result="hardAlpha"/>
<feOffset dy="4"/>
<feGaussianBlur stdDeviation="2"/>
<feComposite in2="hardAlpha" operator="out"/>
<feColorMatrix type="matrix" values="0 0 0 0 0 0 0 0 0 0 0 0 0 0 0 0 0 0 0.25 0"/>
<feBlend mode="normal" in2="BackgroundImageFix" result="effect1_dropShadow_310_13761"/>
<feBlend mode="normal" in="SourceGraphic" in2="effect1_dropShadow_310_13761" result="shape"/>
<feColorMatrix in="SourceAlpha" type="matrix" values="0 0 0 0 0 0 0 0 0 0 0 0 0 0 0 0 0 0 127 0" result="hardAlpha"/>
<feOffset dx="-5" dy="4"/>
<feGaussianBlur stdDeviation="2"/>
<feComposite in2="hardAlpha" operator="arithmetic" k2="-1" k3="1"/>
<feColorMatrix type="matrix" values="0 0 0 0 0 0 0 0 0 0 0 0 0 0 0 0 0 0 0.25 0"/>
<feBlend mode="normal" in2="shape" result="effect2_innerShadow_310_13761"/>
<feColorMatrix in="SourceAlpha" type="matrix" values="0 0 0 0 0 0 0 0 0 0 0 0 0 0 0 0 0 0 127 0" result="hardAlpha"/>
<feOffset dx="3" dy="-3"/>
<feGaussianBlur stdDeviation="2"/>
<feComposite in2="hardAlpha" operator="arithmetic" k2="-1" k3="1"/>
<feColorMatrix type="matrix" values="0 0 0 0 0 0 0 0 0 0 0 0 0 0 0 0 0 0 0.25 0"/>
<feBlend mode="normal" in2="effect2_innerShadow_310_13761" result="effect3_innerShadow_310_13761"/>
</filter>
<filter id="filter1_d_310_13761" x="0" y="28.7632" width="114" height="114" filterUnits="userSpaceOnUse" color-interpolation-filters="sRGB">
<feFlood flood-opacity="0" result="BackgroundImageFix"/>
<feColorMatrix in="SourceAlpha" type="matrix" values="0 0 0 0 0 0 0 0 0 0 0 0 0 0 0 0 0 0 127 0" result="hardAlpha"/>
<feOffset dx="-10" dy="10"/>
<feGaussianBlur stdDeviation="6"/>
<feColorMatrix type="matrix" values="0 0 0 0 0 0 0 0 0 0 0 0 0 0 0 0 0 0 0.6 0"/>
<feBlend mode="normal" in2="BackgroundImageFix" result="effect1_dropShadow_310_13761"/>
<feBlend mode="normal" in="SourceGraphic" in2="effect1_dropShadow_310_13761" result="shape"/>
</filter>
<filter id="filter2_i_310_13761" x="56.3096" y="56.9985" width="24.9375" height="40.6328" filterUnits="userSpaceOnUse" color-interpolation-filters="sRGB">
<feFlood flood-opacity="0" result="BackgroundImageFix"/>
<feBlend mode="normal" in="SourceGraphic" in2="BackgroundImageFix" result="shape"/>
<feColorMatrix in="SourceAlpha" type="matrix" values="0 0 0 0 0 0 0 0 0 0 0 0 0 0 0 0 0 0 127 0" result="hardAlpha"/>
<feOffset dy="4"/>
<feGaussianBlur stdDeviation="2"/>
<feComposite in2="hardAlpha" operator="arithmetic" k2="-1" k3="1"/>
<feColorMatrix type="matrix" values="0 0 0 0 0 0 0 0 0 0 0 0 0 0 0 0 0 0 0.25 0"/>
<feBlend mode="normal" in2="shape" result="effect1_innerShadow_310_13761"/>
</filter>
<filter id="filter3_d_310_13761" x="64.3617" y="20.2192" width="110.638" height="112.342" filterUnits="userSpaceOnUse" color-interpolation-filters="sRGB">
<feFlood flood-opacity="0" result="BackgroundImageFix"/>
<feColorMatrix in="SourceAlpha" type="matrix" values="0 0 0 0 0 0 0 0 0 0 0 0 0 0 0 0 0 0 127 0" result="hardAlpha"/>
<feOffset dx="-12" dy="10"/>
<feGaussianBlur stdDeviation="5"/>
<feComposite in2="hardAlpha" operator="out"/>
<feColorMatrix type="matrix" values="0 0 0 0 0 0 0 0 0 0 0 0 0 0 0 0 0 0 0.4 0"/>
<feBlend mode="normal" in2="BackgroundImageFix" result="effect1_dropShadow_310_13761"/>
<feBlend mode="normal" in="SourceGraphic" in2="effect1_dropShadow_310_13761" result="shape"/>
</filter>
<filter id="filter4_i_310_13761" x="116.864" y="40.0679" width="43.2258" height="58.0239" filterUnits="userSpaceOnUse" color-interpolation-filters="sRGB">
<feFlood flood-opacity="0" result="BackgroundImageFix"/>
<feBlend mode="normal" in="SourceGraphic" in2="BackgroundImageFix" result="shape"/>
<feColorMatrix in="SourceAlpha" type="matrix" values="0 0 0 0 0 0 0 0 0 0 0 0 0 0 0 0 0 0 127 0" result="hardAlpha"/>
<feOffset dy="4"/>
<feGaussianBlur stdDeviation="2"/>
<feComposite in2="hardAlpha" operator="arithmetic" k2="-1" k3="1"/>
<feColorMatrix type="matrix" values="0 0 0 0 0 0 0 0 0 0 0 0 0 0 0 0 0 0 0.25 0"/>
<feBlend mode="normal" in2="shape" result="effect1_innerShadow_310_13761"/>
</filter>
<filter id="filter5_i_310_13761" x="29.4313" y="140.763" width="140" height="24.2061" filterUnits="userSpaceOnUse" color-interpolation-filters="sRGB">
<feFlood flood-opacity="0" result="BackgroundImageFix"/>
<feBlend mode="normal" in="SourceGraphic" in2="BackgroundImageFix" result="shape"/>
<feColorMatrix in="SourceAlpha" type="matrix" values="0 0 0 0 0 0 0 0 0 0 0 0 0 0 0 0 0 0 127 0" result="hardAlpha"/>
<feOffset dy="4"/>
<feGaussianBlur stdDeviation="2"/>
<feComposite in2="hardAlpha" operator="arithmetic" k2="-1" k3="1"/>
<feColorMatrix type="matrix" values="0 0 0 0 0 0 0 0 0 0 0 0 0 0 0 0 0 0 0.25 0"/>
<feBlend mode="normal" in2="shape" result="effect1_innerShadow_310_13761"/>
</filter>
<linearGradient id="paint0_linear_310_13761" x1="42.6576" y1="127.975" x2="91.3454" y2="23.5539" gradientUnits="userSpaceOnUse">
<stop offset="0.17" stop-color="#A4B3BD"/>
<stop offset="0.73" stop-color="#EEF1F3"/>
<stop offset="0.85" stop-color="white"/>
</linearGradient>
<linearGradient id="paint1_linear_310_13761" x1="43.1667" y1="126.881" x2="90.8364" y2="24.648" gradientUnits="userSpaceOnUse">
<stop stop-color="#FDFDFD"/>
<stop offset="0.3" stop-color="#F4F4F4"/>
<stop offset="0.79" stop-color="#DCDCDC"/>
<stop offset="1" stop-color="#D0D0D0"/>
</linearGradient>
</defs>
</svg>
